<svg xmlns="http://www.w3.org/2000/svg" fill="none" viewBox="0 0 67 65" height="65" width="67">
<path fill="white" d="M25.3084 26.9431C25.3084 26.0287 25.4212 23.5987 25.4212 22.8596C25.4212 22.3336 25.3836 22.1206 25.1143 22.1206C24.8137 22.1206 23.9118 22.4713 21.5068 22.4713H6.6199C5.37984 22.4713 3.9519 22.4024 2.85589 22.296C1.92271 22.2208 1.54068 21.8701 1.24006 21.8701C1.01459 21.8701 0.901859 22.0768 0.789126 22.5402C0.713971 22.8221 0 26.0224 0 26.5861C0 26.9744 0.0751542 27.1497 0.331934 27.1497C0.557399 27.1497 0.676394 27.0119 0.745286 26.7301C0.820441 26.4483 1.00833 26.0287 1.39037 25.5026C1.95403 24.726 2.84963 24.5506 5.03538 24.4817L10.6344 24.3377V38.7612C10.6344 41.9991 10.6344 44.7736 10.4465 46.2579C10.3338 47.2725 10.1083 48.0491 9.35053 48.1931C9.0186 48.262 8.56767 48.3309 7.99774 48.3309C7.54681 48.3309 7.3965 48.4436 7.3965 48.619C7.3965 48.8633 7.65954 48.976 8.14805 48.976C9.65115 48.976 12.0185 48.8695 12.8828 48.8695C13.935 48.8695 16.3024 48.976 18.7825 48.976C19.1958 48.976 19.4964 48.8633 19.4964 48.619C19.4964 48.4436 19.3148 48.3309 18.9015 48.3309C18.3378 48.3309 17.5111 48.262 16.9788 48.1931C15.8514 48.0491 15.6322 47.2787 15.5132 46.2892C15.3191 44.7736 15.3191 41.9991 15.3191 38.7612V24.3377L20.0601 24.4442C23.4045 24.513 24.4191 25.5026 24.4943 26.4107L24.5318 26.799C24.5694 27.3314 24.6446 27.5005 24.9452 27.5005C25.1707 27.5005 25.2458 27.2938 25.2834 26.9431M38.5921 37.8217C38.6297 37.9282 38.5921 38.0347 38.4105 38.0347H31.6653C31.515 38.0347 31.4837 37.9282 31.515 37.7904L34.8907 29.1351C34.9283 28.9973 35.0034 28.8157 35.1099 28.8157C35.2164 28.8157 35.2602 28.991 35.2915 29.1351L38.5921 37.8217ZM46.0449 44.3665C43.7026 39.0242 37.828 24.6634 36.9449 22.7281C36.5754 21.9202 36.3562 21.6008 36.0243 21.6008C35.6548 21.6008 35.4418 21.9891 35.0034 23.0099L25.7907 45.1055C25.0517 46.8654 24.3565 48.0553 22.6655 48.2745C22.3711 48.3121 21.8576 48.3434 21.5256 48.3434C21.2375 48.3434 21.0872 48.4123 21.0872 48.6253C21.0872 48.9134 21.3127 48.9822 21.7824 48.9822C23.6989 48.9822 25.7155 48.882 26.1226 48.882C27.2562 48.882 28.8345 48.9822 30.0119 48.9822C30.419 48.9822 30.6319 48.9134 30.6319 48.6253C30.6319 48.4123 30.5192 48.3434 30.0808 48.3434H29.5296C28.3961 48.3434 28.0704 47.88 28.0704 47.2537C28.0704 46.8278 28.252 45.9886 28.6215 45.1055L30.6006 40.0764C30.6758 39.8634 30.7509 39.7946 30.9325 39.7946H39.1119C39.2935 39.7946 39.4063 39.8634 39.4751 40.0388L42.4062 47.4979C42.5941 47.9176 42.331 48.237 42.0805 48.3121C41.711 48.3434 41.567 48.4186 41.567 48.6315C41.567 48.8758 42.0116 48.8758 42.6692 48.9196C45.6065 48.9885 48.2808 48.9885 49.6023 48.9885C50.9238 48.9885 51.2933 48.9196 51.2933 48.6315C51.2933 48.381 51.1116 48.3497 50.8173 48.3497C50.3726 48.3497 49.8277 48.3184 49.2766 48.2119C48.5063 48.0366 47.4416 47.5418 46.0449 44.3727M52.7525 16.3024L50.8486 15.2627L54.669 13.1772L52.7525 16.3024ZM53.8924 16.9287L55.7963 13.8035V17.9746L53.8924 16.9287ZM48.3372 15.7324L56.6167 20.2605V13.5404L54.4874 12.3755L48.3372 15.7324ZM53.1909 10.7534L49.3706 12.839V10.7534H53.1909ZM53.1847 9.51337H49.3706V7.42782L53.1847 9.51337ZM53.8297 8.96849L47.6796 5.60531V14.6615L53.8297 11.2983V8.96849ZM54.669 7.09588L50.8486 5.00407L52.7588 3.95816L54.669 7.09588ZM55.7963 6.46333L53.8924 3.33813L55.7963 2.29223V6.46333ZM54.4874 7.89127L56.623 6.72637V0.00626306L48.3434 4.53435L54.4936 7.89127H54.4874ZM61.815 22.4463C60.4183 22.4463 58.1449 22.5528 57.2869 22.5528C56.3537 22.5528 54.0928 22.4463 52.1826 22.4463C51.644 22.4463 51.3872 22.5214 51.3872 22.7657C51.3872 23.0099 51.6064 23.0851 52.001 23.0851C52.502 23.0851 53.1158 23.1164 53.4039 23.1916C54.5876 23.4358 54.8757 23.9995 54.9508 25.1957C55.0197 26.323 55.0197 27.3063 55.0197 32.6548V42.7507C55.0197 49.6524 55.0573 53.1721 52.3266 55.8777C51.6064 56.5854 51.0678 56.9675 50.5981 57.2117C49.9843 57.5311 49.809 57.6752 49.809 57.8505C49.809 58.0259 49.953 58.1261 50.097 58.1261C50.2724 58.1261 50.5605 58.0572 50.8173 57.9194C51.5751 57.5687 52.1513 57.2806 52.6147 57.005C56.0656 54.932 57.9695 52.502 58.7211 50.3538C59.4476 48.381 59.5916 46.1264 59.5916 44.1222C59.5916 42.3624 59.4789 40.6776 59.4789 39.1557V32.6486C59.4789 27.3 59.4789 26.3168 59.554 25.1894C59.6292 23.9556 59.911 23.3544 60.8881 23.1853C61.3202 23.1102 61.5331 23.0788 61.934 23.0788C62.3598 23.0788 62.579 23.0099 62.579 22.7594C62.579 22.5089 62.3285 22.44 61.8212 22.44M58.7524 13.7909L60.6626 16.9224L58.7524 17.9683V13.7909ZM61.7962 16.3024L59.8922 13.1772L63.7001 15.2627L61.7962 16.3024ZM57.932 20.2605L66.2115 15.7324L60.0613 12.3755L57.932 13.5404V20.2668V20.2605ZM63.7064 5.00407L59.886 7.08962L61.7962 3.95816L63.7064 5.00407ZM60.6563 3.3444L58.7461 6.47585V2.29223L60.6563 3.3444ZM60.0676 7.88501L66.2178 4.52809L57.932 0V6.72011L60.0613 7.88501H60.0676ZM65.1781 12.839L61.3578 10.7534H65.1781V12.839ZM65.1781 9.51337H61.364L65.1781 7.42782V9.51337ZM66.8691 14.6615V5.60531L60.7189 8.96849V11.2983L66.8691 14.6615Z"></path>
</svg>
