<svg xmlns="http://www.w3.org/2000/svg" fill="none" viewBox="0 0 139 65" height="65" width="139">
<path fill="white" d="M9.49596 26.0222C9.86348 26.0222 10.1324 26.0581 10.3027 26.1208C10.482 26.1926 10.5985 26.3002 10.6702 26.4616C10.742 26.623 10.7688 26.883 10.7688 27.2327V36.6118C10.7688 37.0153 10.724 37.3202 10.6344 37.5175C10.5447 37.7147 10.3744 37.8492 10.1234 37.912C9.87245 37.9748 9.487 38.0106 8.95812 38.0106C8.93123 38.0106 8.9133 38.0465 8.9133 38.1362C8.9133 38.2258 8.93123 38.2617 8.95812 38.2617C9.46011 38.2617 9.84556 38.2617 10.1324 38.2438L11.7101 38.2258L13.3684 38.2438C13.6373 38.2527 14.0138 38.2617 14.4889 38.2617C14.5248 38.2617 14.5517 38.2258 14.5517 38.1362C14.5517 38.0465 14.5248 38.0106 14.4889 38.0106C13.96 38.0106 13.5746 37.9748 13.3326 37.912C13.0905 37.8403 12.9292 37.7147 12.8485 37.5264C12.7678 37.3381 12.723 37.0333 12.723 36.6118V27.2686C12.723 26.9009 12.7499 26.6409 12.8126 26.4705C12.8754 26.3002 12.9919 26.1836 13.1802 26.1119C13.3684 26.0491 13.6463 26.0132 14.0228 26.0132C14.8744 26.0132 15.5467 26.2553 16.0486 26.7485C16.5506 27.2417 16.8644 28.0038 16.9988 29.044C17.0168 29.0888 17.0616 29.1067 17.1333 29.1067C17.205 29.1067 17.2409 29.0888 17.2409 29.044C17.2409 28.5149 17.2588 27.8245 17.3036 26.9816C17.3395 26.1298 17.3843 25.4932 17.4291 25.0807C17.4291 25.0269 17.3932 25 17.3215 25C17.2498 25 17.214 25.0269 17.196 25.0807C17.1243 25.2869 16.9809 25.4214 16.7389 25.4842C16.5058 25.5559 16.1293 25.5828 15.6184 25.5828L14.2379 25.6008C13.3415 25.6277 12.4989 25.6456 11.7011 25.6456C10.1503 25.6456 8.7878 25.6277 7.63145 25.5828C6.87847 25.5828 6.49302 25.4394 6.49302 25.1345C6.49302 25.0628 6.45716 25.0359 6.38545 25.0359C6.31374 25.0359 6.27789 25.0717 6.27789 25.1345C6.27789 25.5559 6.24203 26.1746 6.17928 27.0085C6.10757 27.8424 6.05378 28.5149 6 29.044C6 29.0888 6.03586 29.1067 6.10757 29.1067C6.17928 29.1067 6.21514 29.0978 6.21514 29.0619C6.50198 28.0397 6.90536 27.2686 7.4432 26.7664C7.97208 26.2643 8.65335 26.0043 9.47803 26.0043L9.49596 26.0222ZM33.152 38.0196C32.5962 38.0196 32.0315 37.8134 31.4578 37.4009C30.8841 36.9884 30.2297 36.3249 29.4857 35.4013C28.7417 34.4867 27.8184 33.2045 26.7068 31.5726C27.3971 31.2229 27.9439 30.7476 28.3562 30.1558C28.7686 29.564 28.9747 28.8915 28.9747 28.1473C28.9747 27.3224 28.652 26.6857 28.0066 26.2195C27.3702 25.7622 26.4559 25.529 25.2816 25.529C24.9678 25.529 24.681 25.529 24.439 25.547C24.188 25.5649 23.9818 25.5739 23.8025 25.5828C23.2736 25.6277 22.7896 25.6456 22.3503 25.6456C21.9828 25.6456 21.4988 25.6366 20.9161 25.6008L19.8583 25.5828C19.8583 25.5828 19.8225 25.6277 19.8225 25.7084C19.8225 25.7891 19.8315 25.8339 19.8583 25.8339C20.3065 25.8339 20.6382 25.8698 20.8534 25.9415C21.0685 26.0132 21.2119 26.1477 21.2926 26.336C21.3643 26.5243 21.4002 26.8202 21.4002 27.2237V36.6029C21.4002 37.0064 21.3553 37.3112 21.2747 37.5085C21.194 37.7058 21.0506 37.8403 20.8354 37.903C20.6293 37.9748 20.2976 38.0017 19.8315 38.0017C19.7866 38.0017 19.7687 38.0375 19.7687 38.1272C19.7687 38.2169 19.7866 38.2527 19.8315 38.2527C20.2707 38.2527 20.6293 38.2527 20.8802 38.2348L22.3414 38.2169L23.8384 38.2348C24.0804 38.2438 24.421 38.2527 24.8692 38.2527C24.8961 38.2527 24.9051 38.2169 24.9051 38.1272C24.9051 38.0375 24.8961 38.0017 24.8692 38.0017C24.4121 38.0017 24.0804 37.9658 23.8653 37.903C23.6501 37.8313 23.5067 37.7058 23.435 37.5175C23.3633 37.3292 23.3274 37.0243 23.3274 36.6029V32.0837C23.7308 32.1106 24.0804 32.1285 24.3852 32.1285C24.5465 32.1285 24.7706 32.1106 25.0754 32.0837C26.2766 34.0294 27.2985 35.5448 28.1411 36.6208C28.9837 37.7058 29.5574 38.2438 29.8711 38.2438H33.134C33.134 38.2438 33.1968 38.2079 33.1968 38.1182C33.1968 38.0286 33.1699 37.9927 33.134 37.9927L33.152 38.0196ZM23.3453 31.5546V27.2775C23.3453 26.7664 23.4529 26.4078 23.686 26.2105C23.9101 26.0132 24.2866 25.9146 24.8065 25.9146C25.5057 25.9146 26.0435 26.1298 26.42 26.5602C26.7875 26.9906 26.9758 27.7528 26.9758 28.8467C26.9758 29.8151 26.7875 30.5235 26.411 30.9628C26.0345 31.4022 25.4071 31.6174 24.5286 31.6174C24.0714 31.6174 23.677 31.5905 23.3543 31.5367L23.3453 31.5546ZM42.2684 35.1054C41.7843 36.8629 40.6369 37.7416 38.8262 37.7416H37.8312C37.4009 37.7416 37.0961 37.652 36.9258 37.4816C36.7555 37.3023 36.6748 36.9974 36.6748 36.5491V31.9492H38.5931C40.108 31.9492 40.87 32.532 40.87 33.6887C40.87 33.7156 40.9058 33.7246 40.9865 33.7246C41.0761 33.7246 41.112 33.7156 41.112 33.6887C41.112 33.4197 41.103 33.07 41.0761 32.6306L41.0493 31.6802L41.0761 29.9137C41.0761 29.9137 41.0403 29.851 40.9596 29.851C40.8879 29.851 40.852 29.8689 40.852 29.9137C40.852 30.918 40.108 31.4112 38.629 31.4112H36.6838V27.2775C36.6838 26.8561 36.7913 26.5602 36.9886 26.3898C37.1947 26.2105 37.5354 26.1298 38.0194 26.1298H38.8351C40.3859 26.1298 41.3271 26.9009 41.6498 28.4432C41.6588 28.488 41.7036 28.497 41.7753 28.488C41.847 28.4791 41.8829 28.4522 41.8829 28.4253L41.847 25.7891C41.847 25.6635 41.7753 25.6097 41.6409 25.6097H33.2147C33.2147 25.6097 33.152 25.6546 33.152 25.7353C33.152 25.816 33.1699 25.8608 33.2147 25.8608C33.6539 25.8608 33.9856 25.8967 34.2008 25.9684C34.4159 26.0401 34.5593 26.1746 34.64 26.3629C34.7117 26.5512 34.7476 26.8471 34.7476 27.2506V36.6298C34.7476 37.0333 34.7117 37.3381 34.64 37.5354C34.5683 37.7327 34.4249 37.8672 34.2187 37.9299C34.0125 38.0017 33.6719 38.0286 33.2147 38.0286C33.1699 38.0286 33.152 38.0644 33.152 38.1541C33.152 38.2438 33.1699 38.2796 33.2147 38.2796H41.9994C42.1249 38.2796 42.2056 38.2527 42.2415 38.2079C42.2773 38.1631 42.3042 38.0824 42.3042 37.9748C42.3042 37.1229 42.3759 36.1814 42.5104 35.1592C42.5104 35.1413 42.4925 35.1323 42.4566 35.1054C42.4297 35.0875 42.3849 35.0785 42.349 35.0785C42.2952 35.0785 42.2684 35.0965 42.2684 35.1234V35.1054ZM53.6885 35.1054C53.2044 36.8629 52.057 37.7416 50.2463 37.7416H49.2513C48.821 37.7416 48.5163 37.652 48.3549 37.4816C48.1846 37.3023 48.095 36.9974 48.095 36.5491V31.9492H50.0222C51.5371 31.9492 52.2901 32.532 52.2901 33.6887C52.2901 33.7156 52.326 33.7246 52.4156 33.7246C52.4963 33.7246 52.5321 33.7156 52.5321 33.6887C52.5321 33.4197 52.5232 33.07 52.4963 32.6306L52.4784 31.6802L52.4963 29.9137C52.4963 29.9137 52.4604 29.851 52.3887 29.851C52.317 29.851 52.2811 29.8689 52.2811 29.9137C52.2811 30.918 51.5371 31.4112 50.0491 31.4112H48.1039V27.2775C48.1039 26.8561 48.2115 26.5602 48.4087 26.3898C48.6149 26.2105 48.9555 26.1298 49.4396 26.1298H50.2553C51.8061 26.1298 52.7473 26.9009 53.07 28.4432C53.0789 28.488 53.1238 28.497 53.2044 28.488C53.2762 28.4791 53.312 28.4522 53.312 28.4253L53.2672 25.7891C53.2672 25.6635 53.1955 25.6097 53.061 25.6097H44.6349C44.6349 25.6097 44.5721 25.6546 44.5721 25.7353C44.5721 25.816 44.59 25.8608 44.6349 25.8608C45.0741 25.8608 45.4058 25.8967 45.6209 25.9684C45.836 26.0401 45.9795 26.1746 46.0601 26.3629C46.1318 26.5512 46.1677 26.8471 46.1677 27.2506V36.6298C46.1677 37.0333 46.1318 37.3381 46.0601 37.5354C45.9884 37.7327 45.845 37.8672 45.6388 37.9299C45.4326 38.0017 45.092 38.0286 44.6349 38.0286C44.59 38.0286 44.5721 38.0644 44.5721 38.1541C44.5721 38.2438 44.59 38.2796 44.6349 38.2796H53.4196C53.5451 38.2796 53.6258 38.2527 53.6706 38.2079C53.7154 38.1631 53.7333 38.0824 53.7333 37.9748C53.7333 37.1229 53.805 36.1814 53.9395 35.1592C53.9395 35.1413 53.9216 35.1323 53.8947 35.1054C53.8588 35.0875 53.823 35.0785 53.7781 35.0785C53.7333 35.0785 53.6975 35.0965 53.6975 35.1234L53.6885 35.1054ZM67.4214 38.5038C68.6942 38.5038 69.8775 38.2079 70.9621 37.6161C72.0468 37.0243 72.9163 36.2083 73.5617 35.1861C74.2161 34.1639 74.5298 33.0341 74.5298 31.8057C74.5298 30.6938 74.2698 29.6537 73.7499 28.6674C73.23 27.681 72.486 26.892 71.5089 26.2912C70.5408 25.6904 69.4114 25.3856 68.1295 25.3856C66.9821 25.3856 65.8526 25.6366 64.759 26.1388C63.6565 26.6409 62.7601 27.3851 62.0519 28.3804C61.3438 29.3757 60.9942 30.5683 60.9942 31.9581C60.9942 33.1507 61.2631 34.2446 61.8009 35.2489C62.3298 36.2532 63.0828 37.0512 64.0688 37.643C65.0459 38.2348 66.1664 38.5217 67.4214 38.5217V38.5038ZM68.1026 38.0196C67.1614 38.0196 66.3098 37.7237 65.5658 37.1409C64.8128 36.558 64.2302 35.7421 63.7999 34.7019C63.3786 33.6618 63.1634 32.4961 63.1634 31.2139C63.1634 29.5551 63.531 28.2549 64.2481 27.3134C64.9742 26.3719 65.9871 25.9056 67.3048 25.9056C68.3267 25.9056 69.2231 26.1836 69.9851 26.7395C70.747 27.2955 71.3386 28.0666 71.751 29.0529C72.1633 30.0393 72.3695 31.1511 72.3695 32.3975C72.3695 33.5721 72.1812 34.5854 71.8137 35.4372C71.4462 36.289 70.9352 36.9346 70.2988 37.374C69.6534 37.8134 68.9273 38.0286 68.1205 38.0286L68.1026 38.0196ZM84.5964 25.7801C84.5964 25.6546 84.5247 25.6008 84.3902 25.6008H75.964C75.964 25.6008 75.9013 25.6456 75.9013 25.7263C75.9013 25.807 75.9282 25.8518 75.964 25.8518C76.4122 25.8518 76.7439 25.8877 76.959 25.9594C77.1742 26.0312 77.3176 26.1657 77.3983 26.354C77.47 26.5423 77.5059 26.8382 77.5059 27.2417V36.6208C77.5059 37.0243 77.461 37.3292 77.3804 37.5264C77.2997 37.7237 77.1473 37.8582 76.9232 37.921C76.6991 37.9927 76.3405 38.0196 75.8565 38.0196C75.8117 38.0196 75.7937 38.0555 75.7937 38.1451C75.7937 38.2348 75.8117 38.2707 75.8565 38.2707C76.3136 38.2707 76.6722 38.2707 76.9322 38.2527L78.4112 38.2348L80.3923 38.2527C80.706 38.2617 81.1363 38.2707 81.692 38.2707C81.7189 38.2707 81.7369 38.2348 81.7369 38.1451C81.7369 38.0555 81.7279 38.0196 81.692 38.0196C81.0377 38.0196 80.5446 37.9748 80.2219 37.8941C79.9082 37.8134 79.6931 37.6789 79.5855 37.4816C79.4779 37.2843 79.4241 36.9705 79.4241 36.5401V32.1823H81.0466C82.5974 32.1823 83.3773 32.7562 83.3773 33.9039C83.3773 33.9487 83.4131 33.9667 83.5028 33.9667C83.5834 33.9667 83.6193 33.9487 83.6193 33.9039L83.6014 32.8548C83.5924 32.6486 83.5834 32.3437 83.5834 31.9223L83.6014 30.1379C83.6014 30.1379 83.5655 30.0931 83.4759 30.0931C83.3952 30.0931 83.3593 30.102 83.3593 30.1379C83.3593 31.1511 82.5974 31.6533 81.0825 31.6533H79.4241V27.2596C79.4241 26.8561 79.5317 26.5602 79.7289 26.3898C79.9261 26.2105 80.2757 26.1298 80.7598 26.1298H81.5665C83.1173 26.1298 84.0585 26.9009 84.3812 28.4432C84.3902 28.488 84.435 28.497 84.5067 28.488C84.5784 28.4791 84.6143 28.4522 84.6143 28.4253L84.5785 25.7891L84.5964 25.7801ZM95.2904 27.161C95.2904 26.7575 95.3263 26.4526 95.398 26.2553C95.4697 26.0581 95.6131 25.9236 95.8283 25.8518C96.0344 25.7801 96.3661 25.7442 96.8054 25.7442C96.8502 25.7442 96.8681 25.6994 96.8681 25.6187C96.8681 25.538 96.8502 25.4932 96.8054 25.4932L95.8014 25.5111C95.2008 25.538 94.7078 25.5559 94.3044 25.5559C93.9189 25.5559 93.4349 25.538 92.8433 25.5111L91.8124 25.4932C91.8124 25.4932 91.7765 25.538 91.7765 25.6187C91.7765 25.6994 91.7855 25.7442 91.8124 25.7442C92.2606 25.7442 92.5923 25.7801 92.8074 25.8518C93.0225 25.9236 93.166 26.0581 93.2466 26.2464C93.3184 26.4347 93.3542 26.7306 93.3542 27.1341V36.5132C93.3542 36.9167 93.3184 37.2216 93.2466 37.4188C93.166 37.6161 93.0225 37.7506 92.8164 37.8134C92.6102 37.8851 92.2785 37.912 91.8124 37.912C91.7855 37.912 91.7765 37.9568 91.7765 38.0375C91.7765 38.1182 91.7855 38.1631 91.8124 38.1631H101.296C101.422 38.1631 101.502 38.1362 101.538 38.0913C101.583 38.0465 101.601 37.9658 101.601 37.8582C101.601 37.0243 101.664 35.9662 101.789 34.7019C101.789 34.6571 101.753 34.6392 101.691 34.6302C101.619 34.6302 101.583 34.6392 101.565 34.684C101.35 35.5896 100.911 36.307 100.248 36.845C99.5842 37.383 98.7774 37.643 97.8183 37.643H96.5992C96.2048 37.643 95.9269 37.6161 95.7476 37.5623C95.5683 37.5085 95.4518 37.4009 95.389 37.2395C95.3263 37.0781 95.2994 36.8181 95.2994 36.4504V27.1699L95.2904 27.161ZM107.544 36.6208V27.2775C107.544 26.874 107.58 26.5692 107.652 26.3809C107.724 26.1836 107.867 26.0491 108.073 25.9684C108.279 25.8877 108.611 25.8429 109.059 25.8429C109.095 25.8429 109.122 25.798 109.122 25.7173C109.122 25.6366 109.095 25.5918 109.059 25.5918L108.046 25.6097C107.455 25.6366 106.944 25.6546 106.531 25.6546C106.146 25.6546 105.662 25.6456 105.07 25.6097L104.021 25.5918C104.021 25.5918 103.959 25.6366 103.959 25.7173C103.959 25.798 103.977 25.8429 104.021 25.8429C104.479 25.8429 104.81 25.8787 105.025 25.9505C105.232 26.0222 105.384 26.1567 105.465 26.345C105.545 26.5333 105.59 26.8292 105.59 27.2327V36.6118C105.59 37.0153 105.545 37.3202 105.465 37.5175C105.384 37.7147 105.24 37.8492 105.025 37.912C104.819 37.9837 104.488 38.0106 104.021 38.0106C103.977 38.0106 103.959 38.0465 103.959 38.1362C103.959 38.2258 103.977 38.2617 104.021 38.2617C104.461 38.2617 104.819 38.2617 105.07 38.2438L106.531 38.2258L108.028 38.2438C108.279 38.2527 108.629 38.2617 109.059 38.2617C109.095 38.2617 109.122 38.2258 109.122 38.1362C109.122 38.0465 109.095 38.0106 109.059 38.0106C108.602 38.0106 108.27 37.9748 108.055 37.912C107.84 37.8403 107.706 37.7147 107.634 37.5264C107.562 37.3381 107.535 37.0333 107.535 36.6118L107.544 36.6208ZM120.551 25.7801C120.551 25.6546 120.479 25.6008 120.345 25.6008H111.919C111.919 25.6008 111.856 25.6456 111.856 25.7263C111.856 25.807 111.874 25.8518 111.919 25.8518C112.358 25.8518 112.69 25.8877 112.905 25.9594C113.12 26.0312 113.263 26.1657 113.344 26.354C113.416 26.5423 113.452 26.8382 113.452 27.2417V36.6208C113.452 37.0243 113.407 37.3292 113.326 37.5264C113.245 37.7237 113.093 37.8582 112.869 37.921C112.645 37.9927 112.295 38.0196 111.802 38.0196C111.757 38.0196 111.739 38.0555 111.739 38.1451C111.739 38.2348 111.757 38.2707 111.802 38.2707C112.259 38.2707 112.618 38.2707 112.878 38.2527L114.348 38.2348L116.329 38.2527C116.643 38.2617 117.073 38.2707 117.629 38.2707C117.656 38.2707 117.674 38.2348 117.674 38.1451C117.674 38.0555 117.665 38.0196 117.629 38.0196C116.974 38.0196 116.481 37.9748 116.159 37.8941C115.845 37.8134 115.63 37.6789 115.531 37.4816C115.424 37.2843 115.361 36.9705 115.361 36.5401V32.1823H116.983C118.534 32.1823 119.314 32.7562 119.314 33.9039C119.314 33.9487 119.359 33.9667 119.439 33.9667C119.52 33.9667 119.565 33.9487 119.565 33.9039L119.538 32.8548C119.529 32.6486 119.52 32.3437 119.52 31.9223L119.538 30.1379C119.538 30.1379 119.502 30.0931 119.422 30.0931C119.332 30.0931 119.296 30.102 119.296 30.1379C119.296 31.1511 118.543 31.6533 117.028 31.6533H115.361V27.2596C115.361 26.8561 115.468 26.5602 115.666 26.3898C115.872 26.2105 116.212 26.1298 116.696 26.1298H117.512C119.063 26.1298 120.004 26.9009 120.327 28.4432C120.336 28.488 120.381 28.497 120.452 28.488C120.524 28.4791 120.56 28.4522 120.56 28.4253L120.524 25.7891L120.551 25.7801ZM132.168 35.1054C131.684 36.8629 130.537 37.7416 128.726 37.7416H127.731C127.301 37.7416 126.996 37.652 126.826 37.4816C126.655 37.3023 126.575 36.9974 126.575 36.5491V31.9492H128.493C130.008 31.9492 130.77 32.532 130.77 33.6887C130.77 33.7156 130.806 33.7246 130.886 33.7246C130.967 33.7246 131.012 33.7156 131.012 33.6887C131.012 33.4197 131.003 33.07 130.967 32.6306L130.949 31.6802L130.967 29.9137C130.967 29.9137 130.931 29.851 130.86 29.851C130.788 29.851 130.752 29.8689 130.752 29.9137C130.752 30.918 130.008 31.4112 128.529 31.4112H126.584V27.2775C126.584 26.8561 126.691 26.5602 126.889 26.3898C127.086 26.2105 127.435 26.1298 127.919 26.1298H128.735C130.286 26.1298 131.227 26.9009 131.55 28.4432C131.559 28.488 131.604 28.497 131.675 28.488C131.747 28.4791 131.783 28.4522 131.783 28.4253L131.747 25.7891C131.747 25.6635 131.675 25.6097 131.541 25.6097H123.115C123.115 25.6097 123.061 25.6546 123.061 25.7353C123.061 25.816 123.079 25.8608 123.115 25.8608C123.563 25.8608 123.895 25.8967 124.11 25.9684C124.325 26.0401 124.477 26.1746 124.549 26.3629C124.621 26.5512 124.657 26.8471 124.657 27.2506V36.6298C124.657 37.0333 124.621 37.3381 124.549 37.5354C124.477 37.7327 124.334 37.8672 124.128 37.9299C123.921 38.0017 123.581 38.0286 123.124 38.0286C123.088 38.0286 123.07 38.0644 123.07 38.1541C123.07 38.2438 123.088 38.2796 123.124 38.2796H131.917C132.043 38.2796 132.124 38.2527 132.159 38.2079C132.195 38.1631 132.222 38.0824 132.222 37.9748C132.222 37.1229 132.294 36.1814 132.428 35.1592C132.428 35.1413 132.41 35.1323 132.375 35.1054C132.348 35.0875 132.312 35.0785 132.267 35.0785C132.213 35.0785 132.186 35.0965 132.186 35.1234L132.168 35.1054Z"></path>
</svg>
