<svg xmlns="http://www.w3.org/2000/svg" fill="none" viewBox="0 0 68 65" height="65" width="68">
<path fill="white" d="M12.9424 35.2398C12.9424 38.528 9.30173 40.0635 6.83919 40.0635C3.71031 40.0635 2.1169 38.7212 2.1169 36.0751C2.1169 33.7188 3.90828 32.4441 7.90146 31.9419C10.1178 31.6667 11.9622 31.3818 12.9376 30.6189V35.2446L12.9424 35.2398ZM17.066 41.2803L17.3074 41.2223V39.6241L16.9308 39.7062C16.0713 39.8897 15.4581 39.8365 15.1056 39.542C14.6228 39.1316 14.6228 38.2335 14.6324 37.4368V27.7749C14.6324 23.8203 12.4789 21.7296 8.3988 21.7296C2.33418 21.7296 1.40228 25.7904 1.2864 27.5383L1.26225 27.8811H2.95223L2.97155 27.5769C3.14055 24.8295 5.07195 23.3134 8.40363 23.3134C9.7701 23.3134 12.9473 23.6851 12.9473 27.1231C12.9473 29.6097 10.9096 29.885 8.55331 30.1988C8.18635 30.2471 7.82904 30.2954 7.47173 30.3533C2.47904 31.1355 0.441406 32.8786 0.441406 36.3986C0.441406 39.542 2.90395 41.6472 6.56879 41.6472C9.41279 41.6472 11.5663 40.6767 12.9907 38.7646C13.1887 40.6236 14.0723 41.4299 15.8347 41.4299C16.0134 41.4299 16.4866 41.4203 17.0708 41.2803M43.8449 41.2513H45.5301V28.0308C45.5301 23.97 43.5794 21.7296 40.0352 21.7296C37.2009 21.7296 35.2405 22.8402 33.763 25.3075C33.0725 22.9609 31.3536 21.7296 28.7655 21.7296C26.3754 21.7296 24.4729 22.7436 23.0871 24.7474V21.9855H21.402V41.2513H23.0871V28.3205C23.0871 26.2829 25.2986 23.3182 28.7655 23.3182C31.3149 23.3182 32.6042 25.1482 32.6042 28.7551V41.2513H34.2941V28.3205C34.2941 25.9159 36.4573 23.3182 39.9628 23.3182C42.6813 23.3182 43.8449 24.9454 43.8449 28.7551V41.2513ZM64.7041 15.4622L64.7186 15.2304H62.9369L62.9224 15.4284C62.7534 17.4708 62.0002 17.7026 61.4449 17.7026C60.7013 17.7026 59.9432 17.1956 59.1465 16.6597C58.1422 15.9885 57.0075 15.2256 55.5975 15.2256C53.6661 15.2256 52.4832 16.6452 52.3383 19.1174L52.3286 19.3443H54.1007L54.12 19.1463C54.2456 17.635 54.7381 16.8673 55.5975 16.8673C56.3508 16.8673 57.1234 17.3839 57.9587 17.9296C58.963 18.5911 60.0977 19.3443 61.4449 19.3443C63.4053 19.3443 64.5593 17.9585 64.6993 15.4525M62.8886 35.2398C62.8886 38.528 59.2479 40.0635 56.7902 40.0635C53.6565 40.0635 52.0679 38.7212 52.0679 36.0751C52.0679 33.7188 53.8593 32.4441 57.8525 31.9419C60.0736 31.6667 61.9133 31.3818 62.8886 30.6189V35.2446V35.2398ZM67.2536 41.2223V39.6241L66.877 39.7062C66.0078 39.8897 65.3994 39.8365 65.0518 39.542C64.5593 39.1316 64.5689 38.2335 64.5786 37.4368V27.7749C64.5786 23.8203 62.4202 21.7296 58.345 21.7296C52.2804 21.7296 51.3485 25.7904 51.2326 27.5383L51.2036 27.8811H52.8936L52.9129 27.5769C53.0819 24.8295 55.0133 23.3134 58.3401 23.3134C59.7066 23.3134 62.8838 23.6851 62.8838 27.1231C62.8838 29.6097 60.8462 29.885 58.485 30.1988C58.1277 30.2471 57.7704 30.2954 57.4131 30.3533C52.4156 31.1355 50.3827 32.8786 50.3827 36.3986C50.3827 39.542 52.8405 41.6472 56.5101 41.6472C59.3445 41.6472 61.5028 40.6767 62.9321 38.7646C63.13 40.6236 64.004 41.4299 65.7761 41.4299C65.9547 41.4299 66.4327 41.4203 67.0122 41.2803L67.2536 41.2223Z"></path>
<path fill="white" d="M67.0773 46.3499L67.2559 45.983C67.0773 45.8671 66.8696 45.7705 66.6475 45.7029C66.4157 45.6353 66.184 45.5967 65.9522 45.5967C65.6673 45.5967 65.4162 45.6401 65.199 45.7319C64.9865 45.8188 64.8127 45.9492 64.692 46.1133C64.5761 46.2823 64.5133 46.4706 64.5133 46.6879C64.5133 46.9487 64.5761 47.1563 64.692 47.3156C64.8175 47.475 64.9624 47.5957 65.1314 47.6729C65.31 47.755 65.5321 47.8419 65.8218 47.9337C66.0826 48.0158 66.2757 48.0882 66.4109 48.151C66.5558 48.2137 66.6813 48.3055 66.7779 48.4214C66.8696 48.5372 66.9227 48.6869 66.9227 48.8704C66.9227 49.0974 66.8262 49.2808 66.6379 49.416C66.4495 49.5512 66.1888 49.6188 65.8701 49.6188C65.6287 49.6188 65.3873 49.5657 65.1362 49.4547C64.8851 49.3484 64.663 49.1988 64.4747 49.0056L64.2767 49.3581C64.4843 49.5561 64.7258 49.7154 65.001 49.8361C65.281 49.9568 65.5756 50.0148 65.8605 50.0148C66.1647 50.0148 66.4254 49.9617 66.6524 49.8699C66.8841 49.7733 67.0531 49.6333 67.1883 49.4547C67.3139 49.276 67.3766 49.0732 67.3766 48.8366C67.3766 48.571 67.3139 48.3586 67.1883 48.1993C67.0724 48.0351 66.9179 47.9144 66.7393 47.8323C66.5703 47.7454 66.3385 47.6585 66.0536 47.5715C65.8122 47.4943 65.6142 47.4219 65.4694 47.3591C65.3245 47.2915 65.2086 47.2046 65.1121 47.0935C65.0203 46.9825 64.9672 46.8376 64.9672 46.659C64.9672 46.4562 65.0541 46.292 65.2376 46.1761C65.4066 46.0602 65.6384 46.0023 65.9329 46.0023C66.1116 46.0023 66.2999 46.0312 66.5075 46.094C66.7103 46.152 66.9083 46.2389 67.0773 46.3499ZM61.2637 49.9858H63.5428V49.5995H61.6838V45.6401H61.2637V49.9858ZM59.1537 49.9858H59.5641V45.645H59.1537V49.9858ZM55.8848 46.0988L56.8939 48.4455H54.8804L55.8799 46.0988H55.8848ZM58.0141 49.9858L56.1165 45.6401H55.6771L53.7699 49.9858H54.2189L54.7211 48.827H57.0677L57.5699 49.9858H58.019H58.0141ZM50.0905 48.1944V46.0264H51.2542C51.655 46.0264 51.9688 46.1182 52.1861 46.2968C52.4034 46.4803 52.5096 46.7459 52.5096 47.0935C52.5096 47.4412 52.4034 47.7212 52.1861 47.9095C51.9688 48.093 51.6598 48.1896 51.2542 48.1896H50.0905V48.1944ZM52.9442 49.9858L51.9254 48.4841C52.2392 48.3876 52.4903 48.2234 52.6497 47.982C52.8187 47.7454 52.9104 47.4412 52.9104 47.0839C52.9104 46.6252 52.7655 46.2678 52.4807 46.0168C52.1861 45.7657 51.7853 45.6401 51.2542 45.6401H49.6705V49.9858H50.0905V48.5807H51.2542C51.317 48.5807 51.4232 48.5759 51.5488 48.5662L52.4613 49.9858H52.9442ZM45.3682 46.0312H46.7637V49.9906H47.1741V46.0312H48.5696V45.6401H45.3682V46.0312ZM40.3418 49.6768C40.0907 49.6768 39.8782 49.5947 39.7092 49.4305C39.5306 49.2615 39.4485 49.0539 39.4485 48.8028C39.4485 48.5904 39.5209 48.4117 39.6561 48.2669C39.801 48.1172 39.9941 47.9723 40.2548 47.8226C40.4866 48.1027 40.8777 48.5228 41.4282 49.0829C41.0902 49.4788 40.728 49.6768 40.3466 49.6768M39.9651 46.5382C39.9651 46.3548 40.0279 46.2002 40.1534 46.0844C40.279 45.9636 40.4383 45.9057 40.6363 45.9057C40.8343 45.9057 40.9743 45.9588 41.0902 46.065C41.1964 46.1713 41.2495 46.3065 41.2495 46.4755C41.2495 46.6203 41.2157 46.7507 41.1336 46.8569C41.0516 46.968 40.955 47.0645 40.8294 47.1466C40.7136 47.2287 40.5446 47.3205 40.3466 47.4315C40.0858 47.079 39.9603 46.7797 39.9603 46.5382M42.5967 49.8265L41.8531 49.0684C42.0317 48.8221 42.1911 48.5228 42.3456 48.1751L42.0607 47.9627C41.9255 48.2862 41.7807 48.5759 41.6117 48.8318C41.1047 48.3151 40.7425 47.9289 40.5301 47.6633C40.7715 47.5377 40.9502 47.4219 41.095 47.3253C41.2399 47.2287 41.3557 47.108 41.4523 46.968C41.5489 46.828 41.5923 46.6638 41.5923 46.4803C41.5923 46.2292 41.5054 46.0264 41.3219 45.8622C41.153 45.7029 40.9212 45.6257 40.6363 45.6257C40.4383 45.6257 40.2693 45.6643 40.11 45.7415C39.9555 45.8188 39.8396 45.9298 39.7527 46.0699C39.6754 46.2099 39.6271 46.3644 39.6271 46.5382C39.6271 46.6928 39.6658 46.8618 39.7334 47.0307C39.8155 47.1997 39.9217 47.3832 40.0714 47.5812C39.7575 47.7502 39.5161 47.9289 39.3471 48.1172C39.1781 48.3055 39.096 48.5372 39.096 48.827C39.096 49.0491 39.1491 49.2422 39.2602 49.4257C39.3761 49.6043 39.5209 49.7492 39.7141 49.8506C39.9024 49.9568 40.11 50.0051 40.3321 50.0051C40.5735 50.0051 40.8053 49.9472 41.0322 49.8313C41.2544 49.7154 41.462 49.5416 41.6551 49.3195C41.9497 49.6188 42.1911 49.8603 42.3746 50.0486L42.5967 49.8313V49.8265ZM36.0058 46.3499L36.1844 45.983C36.0154 45.8671 35.8078 45.7705 35.576 45.7029C35.3442 45.6353 35.1125 45.5967 34.8904 45.5967C34.6055 45.5967 34.3447 45.6401 34.1323 45.7319C33.915 45.8188 33.746 45.9492 33.6205 46.1133C33.5046 46.2823 33.4418 46.4706 33.4418 46.6879C33.4418 46.9487 33.5046 47.1563 33.6205 47.3156C33.746 47.475 33.8909 47.5957 34.0599 47.6729C34.2385 47.755 34.4703 47.8419 34.7552 47.9337C35.0062 48.0158 35.2042 48.0882 35.3442 48.151C35.4794 48.2137 35.605 48.3055 35.7016 48.4214C35.7981 48.5372 35.8416 48.6869 35.8416 48.8704C35.8416 49.0974 35.745 49.2808 35.5567 49.416C35.3684 49.5512 35.1076 49.6188 34.789 49.6188C34.5475 49.6188 34.3061 49.5657 34.055 49.4547C33.8039 49.3484 33.5818 49.1988 33.3935 49.0056L33.2052 49.3581C33.4032 49.5561 33.6446 49.7154 33.9198 49.8361C34.2047 49.9568 34.4896 50.0148 34.789 50.0148C35.0883 50.0148 35.3442 49.9617 35.576 49.8699C35.8078 49.7733 35.9864 49.6333 36.112 49.4547C36.2375 49.276 36.3003 49.0732 36.3003 48.8366C36.3003 48.571 36.2423 48.3586 36.1216 48.1993C35.9961 48.0351 35.8416 47.9144 35.6726 47.8323C35.4939 47.7454 35.2622 47.6585 34.9773 47.5715C34.7359 47.4943 34.5379 47.4219 34.393 47.3591C34.2627 47.2915 34.1323 47.2046 34.0454 47.0935C33.944 46.9825 33.8909 46.8376 33.8909 46.659C33.8909 46.4562 33.9826 46.292 34.1613 46.1761C34.3303 46.0602 34.562 46.0023 34.8566 46.0023C35.0352 46.0023 35.2332 46.0312 35.4408 46.094C35.6436 46.152 35.8319 46.2389 36.0009 46.3499M32.1574 45.645L30.762 47.982L29.3327 45.645H28.903L30.5495 48.4407V49.9906H30.9696V48.4407L32.5968 45.645H32.1574ZM26.6095 46.0988L27.6186 48.4455H25.6003L26.6095 46.0988ZM28.7388 49.9858L26.8316 45.6401H26.4018L24.4946 49.9858H24.9436L25.4361 48.827H27.7828L28.2898 49.9858H28.7388ZM21.216 46.0312H22.6114V49.9906H23.0315V46.0312H24.427V45.6401H21.216V46.0312ZM20.1199 46.3499L20.2986 45.983C20.1296 45.8671 19.922 45.7705 19.6902 45.7029C19.4584 45.6353 19.2267 45.5967 19.0045 45.5967C18.71 45.5967 18.4589 45.6401 18.2416 45.7319C18.0292 45.8188 17.8554 45.9492 17.7346 46.1133C17.6188 46.2823 17.556 46.4706 17.556 46.6879C17.556 46.9487 17.6188 47.1563 17.7346 47.3156C17.8602 47.475 18.005 47.5957 18.1837 47.6729C18.3527 47.755 18.5845 47.8419 18.8742 47.9337C19.1253 48.0158 19.3232 48.0882 19.4633 48.151C19.6081 48.2137 19.724 48.3055 19.8206 48.4214C19.9123 48.5372 19.9654 48.6869 19.9654 48.8704C19.9654 49.0974 19.8688 49.2808 19.6805 49.416C19.4922 49.5512 19.2315 49.6188 18.908 49.6188C18.6665 49.6188 18.4251 49.5657 18.174 49.4547C17.9278 49.3484 17.7008 49.1988 17.5125 49.0056L17.3242 49.3581C17.5222 49.5561 17.7636 49.7154 18.0437 49.8361C18.3286 49.9568 18.6134 50.0148 18.908 50.0148C19.2025 50.0148 19.4633 49.9617 19.695 49.8699C19.9268 49.7733 20.1054 49.6333 20.231 49.4547C20.3565 49.276 20.4193 49.0732 20.4193 48.8366C20.4193 48.571 20.3565 48.3586 20.2406 48.1993C20.1151 48.0351 19.9606 47.9144 19.7916 47.8323C19.6129 47.7454 19.3812 47.6585 19.0915 47.5715C18.85 47.4943 18.6521 47.4219 18.512 47.3591C18.3768 47.2915 18.2513 47.2046 18.1547 47.0935C18.063 46.9825 18.0099 46.8376 18.0099 46.659C18.0099 46.4562 18.1016 46.292 18.2803 46.1761C18.4493 46.0602 18.681 46.0023 18.9756 46.0023C19.1542 46.0023 19.3522 46.0312 19.5598 46.094C19.7626 46.152 19.9509 46.2389 20.1199 46.3499Z"></path>
</svg>
