<svg xmlns="http://www.w3.org/2000/svg" fill="none" viewBox="0 0 82 65" height="65" width="82">
<path fill="white" d="M80.2618 48.7947V48.5504C80.2618 47.4732 79.5103 46.7154 78.4456 46.7154C77.3809 46.7154 76.598 47.4857 76.598 48.5128C76.598 49.5399 77.3809 50.3165 78.5082 50.3165C79.0969 50.3165 79.6105 50.1349 79.98 49.7967L80.0677 49.7216L79.6543 49.208L79.5541 49.2957C79.3099 49.5274 78.9341 49.6652 78.5521 49.6652C77.8757 49.6652 77.5124 49.2456 77.4247 48.8009H80.2618V48.7947ZM79.4664 48.1872H77.4247C77.4936 47.8176 77.8068 47.3605 78.4393 47.3605C79.0719 47.3605 79.4101 47.7675 79.4664 48.1872ZM74.9384 50.2289H75.7275V47.8615C75.7275 47.1037 75.2891 46.7091 74.4812 46.7091C74.0302 46.7091 73.6294 46.897 73.3538 47.1037V46.7905H72.5647V50.2289H73.3538V47.8114C73.5355 47.6047 73.8862 47.3918 74.2745 47.3918C74.7442 47.3918 74.9446 47.5734 74.9446 48.0118V50.2289H74.9384ZM71.5877 46.1204C71.5877 45.8636 71.3685 45.6632 71.0992 45.6632C70.8299 45.6632 70.6107 45.8699 70.6107 46.1204C70.6107 46.3709 70.8236 46.5713 71.0992 46.5713C71.3748 46.5713 71.5877 46.3709 71.5877 46.1204ZM67.6609 47.7362C67.6609 47.5108 67.9302 47.3479 68.3185 47.3479C68.7068 47.3479 69.0763 47.4857 69.2829 47.7112L69.3706 47.8176L69.7777 47.2665L69.6963 47.1976C69.3456 46.8719 68.8633 46.7028 68.3122 46.7028C67.3289 46.7028 66.8842 47.2415 66.8842 47.7425C66.8842 48.494 67.6358 48.6631 68.237 48.7947C68.7506 48.9074 69.0575 48.9951 69.0575 49.2268C69.0575 49.4898 68.7882 49.6589 68.3435 49.6589C67.8988 49.6589 67.4792 49.446 67.2788 49.2393L67.1786 49.1391L66.7465 49.6903L66.8216 49.7654C67.1911 50.1224 67.6984 50.304 68.331 50.304C69.2454 50.304 69.8278 49.8781 69.8278 49.2143C69.8278 48.4064 69.0512 48.2373 68.4187 48.0995C67.9427 47.993 67.6546 47.9178 67.6546 47.73M66.1202 46.1204C66.1202 45.8636 65.9072 45.6632 65.6317 45.6632C65.3561 45.6632 65.1432 45.8699 65.1432 46.1204C65.1432 46.3709 65.3561 46.5713 65.6317 46.5713C65.9072 46.5713 66.1202 46.3709 66.1202 46.1204ZM63.3895 50.2289H64.1724V46.7905H63.3895V49.2205C63.2079 49.4209 62.8572 49.6276 62.4689 49.6276C61.9867 49.6276 61.7988 49.4585 61.7988 49.0201V46.7968H61.0159V49.1767C61.0159 49.6965 61.2288 50.3165 62.2622 50.3165C62.6568 50.3165 63.0639 50.1788 63.3895 49.9282V50.2351V50.2289ZM59.1495 51.4501H59.9324V46.7905H59.1495V47.0911C58.8615 46.8532 58.4794 46.7091 58.0849 46.7091C57.0703 46.7091 56.4064 47.4293 56.4064 48.5066C56.4064 49.5838 57.0765 50.3103 58.0849 50.3103C58.4919 50.3103 58.8552 50.1725 59.1495 49.922V51.4439V51.4501ZM59.1495 49.1892C58.9867 49.4022 58.6172 49.6214 58.2164 49.6214C57.6026 49.6214 57.2143 49.183 57.2143 48.5003C57.2143 47.8176 57.6026 47.3855 58.2164 47.3855C58.5671 47.3855 58.9554 47.5671 59.1495 47.8114V49.1767V49.1892ZM52.204 50.8113L54.0453 46.7905H53.1873L52.0912 49.2393L51.0015 46.7905H50.1435L51.6654 50.1412L51.4587 50.5733C51.3585 50.7988 51.2332 50.8426 51.0453 50.8426C50.9639 50.8426 50.8575 50.8176 50.7886 50.7988L50.657 50.7424L50.5193 51.4501L50.6257 51.4814C50.751 51.5128 50.9389 51.5315 51.0579 51.5315C51.609 51.5253 51.9785 51.2873 52.1977 50.8113M49.2792 47.4669H49.9932V46.7905H49.2792V45.9137H48.4901V46.7905H47.9014V47.4669H48.4901V49.4397C48.4901 49.9909 48.8157 50.3103 49.3857 50.3103C49.7051 50.3103 49.9368 50.2351 50.1247 50.0786L50.1873 50.0222L49.9243 49.4084L49.799 49.5337C49.7427 49.5838 49.6362 49.6339 49.5109 49.6339C49.3606 49.6339 49.2792 49.5337 49.2792 49.3458V47.4794V47.4669ZM47.4128 46.1204C47.4128 45.8636 47.1874 45.6632 46.9181 45.6632C46.6488 45.6632 46.4421 45.8699 46.4421 46.1204C46.4421 46.3709 46.655 46.5713 46.9181 46.5713C47.1811 46.5713 47.4128 46.3709 47.4128 46.1204ZM44.6634 50.2289H45.4463V45.5693H44.6634V50.2289ZM42.8159 50.2289H43.5987V47.9116C43.5987 47.16 43.0413 46.7091 42.1144 46.7091C41.5132 46.7091 41.0247 46.8907 40.6238 47.2728L40.5424 47.3417L40.9495 47.8865L41.0497 47.7863C41.3316 47.5045 41.6447 47.3792 42.0393 47.3792C42.3963 47.3792 42.8096 47.5295 42.8096 47.9366V48.2498C42.5278 48.0556 42.1771 47.9554 41.7637 47.9554C41.0936 47.9554 40.4109 48.3563 40.4109 49.1266C40.4109 49.8969 41.1124 50.3103 41.7637 50.3103C42.1583 50.3103 42.5215 50.2038 42.8096 50.0034V50.2289H42.8159ZM42.8159 49.3896C42.6342 49.5963 42.3211 49.709 41.9641 49.709C41.5194 49.709 41.2126 49.471 41.2126 49.1329C41.2126 48.7947 41.5194 48.5504 41.9641 48.5504C42.3148 48.5504 42.6342 48.6694 42.8159 48.8698V49.3834V49.3896ZM38.7512 50.2289H39.5466V46.7905H38.7512V49.2205C38.5759 49.4209 38.2252 49.6276 37.8369 49.6276C37.3483 49.6276 37.1667 49.4585 37.1667 49.0201V46.7968H36.3839V49.1767C36.3839 49.6965 36.5968 50.3165 37.6177 50.3165C38.0247 50.3165 38.4318 50.1788 38.745 49.9282V50.2351L38.7512 50.2289ZM34.5112 51.4501H35.2941V46.7905H34.5112V47.0911C34.2294 46.8532 33.8411 46.7091 33.4528 46.7091C32.4382 46.7091 31.7618 47.4293 31.7618 48.5066C31.7618 49.5838 32.4382 50.3103 33.4528 50.3103C33.8536 50.3103 34.2232 50.1725 34.5112 49.922V51.4439V51.4501ZM34.5112 49.1892C34.3547 49.4022 33.9852 49.6214 33.5781 49.6214C32.9706 49.6214 32.5823 49.183 32.5823 48.5003C32.5823 47.8176 32.9706 47.3855 33.5781 47.3855C33.9413 47.3855 34.3296 47.5671 34.5112 47.8114V49.1767V49.1892ZM30.622 43.4649C31.1982 41.9618 31.0729 41.5923 30.9038 41.4357C30.7848 41.3355 30.647 41.3042 30.4967 41.348C30.2963 41.4044 29.9706 41.6424 29.3757 43.0954C29.2942 43.2833 29.2253 43.5401 29.1439 43.7467C28.7494 43.7217 28.1481 43.7029 27.1648 43.6966C25.9812 43.6841 24.215 43.7029 21.9103 43.753C22.1357 42.9764 22.3424 42.2938 22.524 41.7176C22.5491 41.6299 22.5303 41.5422 22.4802 41.4608C22.4363 41.3856 22.3675 41.3355 22.2735 41.3167C22.1796 41.2979 22.0982 41.3105 22.0167 41.348C21.9291 41.3919 21.8727 41.4608 21.8476 41.5422C21.6597 42.156 21.4343 42.9013 21.19 43.7655C20.57 43.7781 19.8811 43.7906 19.1295 43.8031C17.8895 43.8344 17.1129 43.8532 16.8999 43.8532C16.8373 43.8532 16.7809 43.8657 16.7246 43.8908C16.6682 43.9158 16.6244 43.9597 16.5868 44.0035C16.5617 44.0536 16.5429 44.11 16.5429 44.1664C16.5429 44.254 16.5805 44.3355 16.6494 44.3981C16.712 44.4545 16.7935 44.4858 16.8937 44.4858C17.1191 44.4858 17.8957 44.4732 19.1421 44.4419C19.8623 44.4231 20.4886 44.4106 20.9959 44.4044C20.714 45.4315 20.4385 46.5964 20.1566 47.6986C20.0878 47.6736 20.0063 47.6611 19.9249 47.6861C19.8435 47.7112 19.7621 47.7675 19.7182 47.849C19.4489 48.3437 19.1734 48.7571 18.9103 49.0702C18.6473 49.3834 18.4406 49.5963 18.2778 49.7028C18.0961 49.8218 17.9959 49.8343 17.9145 49.8218C17.9145 49.8218 17.8895 49.8218 17.8707 49.803C17.8644 49.803 17.8331 49.7779 17.7517 49.6652C17.6953 49.5838 17.6452 49.4836 17.5951 49.3646C17.5513 49.2393 17.5074 49.0452 17.4573 48.7947C17.4135 48.5379 17.3759 48.2435 17.3571 47.9116C17.3509 47.7613 17.2569 47.6611 17.1066 47.6235C16.9187 47.5797 16.7997 47.6548 16.7371 47.73L16.5179 47.9867C16.0795 48.5128 15.6849 48.9262 15.3906 49.2143C15.4094 49.0452 15.4845 48.7884 15.6348 48.4064C15.854 47.9116 16.1045 47.5734 16.4114 47.3855C16.5555 47.2916 16.7997 47.2101 17.1066 47.5295C17.1692 47.5922 17.2507 47.6298 17.3446 47.6298C17.4448 47.636 17.5262 47.611 17.5889 47.5609C17.6703 47.5045 17.7141 47.4293 17.7266 47.3354C17.7266 47.2477 17.7016 47.1663 17.6327 47.1037C17.2444 46.6966 16.7997 46.5651 16.3425 46.7091C16.0294 46.7968 15.735 47.016 15.4782 47.3542C15.4031 47.4544 15.3718 47.5671 15.3029 47.6673C15.2966 47.6673 15.2966 47.6548 15.2841 47.6485C15.2027 47.6172 15.115 47.611 15.0336 47.6298C14.9459 47.6548 14.8707 47.7112 14.8269 47.7989C14.5764 48.2686 14.3008 48.7132 14.0315 49.1266C13.7622 49.5399 13.5054 49.8969 13.28 50.1788C13.0608 50.4606 12.8541 50.7048 12.6537 50.9115C12.4658 51.1119 12.303 51.256 12.184 51.3499C12.1088 51.4 12.0587 51.4313 12.0211 51.4439C11.9334 51.1245 12.0399 50.2038 12.9793 47.6924C13.1046 47.3667 12.9981 47.1976 12.8729 47.1162C12.8102 47.0849 12.7476 47.0598 12.685 47.0473C12.6098 47.0348 12.5409 47.0473 12.447 47.0849C12.3781 47.1099 12.3155 47.1412 12.2591 47.1663C12.2027 47.1913 12.1213 47.2352 12.0211 47.2978C11.5702 47.5483 11.2821 47.6611 11.0879 47.7049C11.3948 47.2289 11.6203 46.8218 11.7643 46.5087C11.9898 46.0077 11.9961 45.8198 11.9773 45.7258C11.9522 45.563 11.8645 45.444 11.7268 45.3688C11.5013 45.2436 11.232 45.2874 10.9314 45.5004C10.6621 45.6883 10.4366 45.92 10.2425 46.1768C9.92931 46.5901 9.77274 46.9784 9.78526 47.3291C9.79152 47.492 9.95436 47.5859 10.017 47.7174C10.0107 47.7174 9.9982 47.7112 9.97941 47.7174C9.87921 47.7362 9.80405 47.7801 9.75395 47.8552C9.6099 48.0744 9.45959 48.2748 9.29049 48.469C9.14018 48.6631 8.99613 48.8322 8.85835 48.9825C8.72683 49.1266 8.58904 49.2644 8.46379 49.3834C8.33853 49.5024 8.21953 49.6088 8.11933 49.6903C8.01912 49.7717 7.93144 49.8406 7.85002 49.8969C7.7686 49.947 7.70597 49.9846 7.64961 50.0034C7.64334 50.0097 7.63082 50.0097 7.62456 50.0159C7.61829 49.9909 7.60577 49.9157 7.58072 49.6903C7.56193 49.5024 7.5995 49.2268 7.68092 48.8635C7.73729 48.6569 7.75608 48.494 7.74355 48.3625C7.73729 48.1934 7.64335 48.0744 7.48677 48.0243C7.44293 48.0055 7.39909 47.9993 7.36151 47.993C7.30515 47.993 7.24252 47.9993 7.18615 48.0243L7.10473 48.0744C7.06716 48.0995 7.02332 48.1308 6.97948 48.1872L6.74775 48.4439C6.45339 48.826 6.19661 49.089 5.9962 49.2331C5.93983 49.2706 5.91478 49.2832 5.89599 49.2894C5.8772 49.2706 5.85841 49.2205 5.83963 49.1141C5.82084 48.9888 5.83963 48.826 5.88347 48.6318C5.92731 48.4314 6.01499 48.2435 6.15277 48.0619C6.19661 47.9867 6.2154 47.8991 6.19035 47.8114C6.1653 47.73 6.10267 47.6611 6.01499 47.6235C5.93357 47.5797 5.84589 47.5734 5.75195 47.5922C5.658 47.611 5.58911 47.6611 5.53901 47.7362C5.53274 47.7488 5.53901 47.7613 5.53274 47.7801C5.51396 47.7801 5.51395 47.755 5.49517 47.755C5.41375 47.7174 5.3198 47.7174 5.23839 47.7487C5.15071 47.7801 5.08808 47.8302 5.03171 47.9116C4.81251 48.3249 4.21753 49.8656 3.21547 52.6213C2.76454 53.8551 2.40129 54.8572 2.11319 55.615C2.80838 51.9574 3.31567 49.4209 3.62882 48.0556C3.6664 47.8991 3.59124 47.7613 3.4284 47.6986C3.27809 47.636 3.13405 47.6673 3.00253 47.7926C2.96495 47.849 2.88353 47.9429 2.7708 48.0744C2.31987 48.6005 1.94409 49.0076 1.64347 49.2832C1.58711 49.3395 1.537 49.3771 1.49943 49.4084V49.3333C1.49316 49.2456 1.51822 49.1078 1.58084 48.9324C1.64347 48.7571 1.72489 48.588 1.84389 48.4251C1.90652 48.3375 1.95662 48.256 2.03177 48.1809C2.0944 48.1057 2.17582 48.0243 2.28855 47.9366C2.39502 47.8552 2.51402 47.7863 2.63301 47.7487C2.75201 47.7049 2.89606 47.6673 3.06515 47.6423C3.22173 47.6172 3.39083 47.6298 3.57871 47.6861C3.63508 47.6924 3.68518 47.6924 3.72902 47.6861C3.79165 47.6736 3.85428 47.6485 3.90439 47.5984C3.94823 47.5546 3.97954 47.5045 3.9858 47.4544C4.01086 47.3667 3.99207 47.279 3.94823 47.1976C3.89186 47.1287 3.82297 47.0849 3.72902 47.0661C3.12778 46.9283 2.58291 46.9972 2.11946 47.2728C1.656 47.5421 1.30528 47.9178 1.07355 48.3813C0.967079 48.588 0.885661 48.7947 0.841821 49.0013C0.79798 49.2143 0.785454 49.4084 0.823031 49.59C0.860609 49.7905 0.960816 49.9345 1.10486 50.0222C1.40548 50.1913 1.75621 50.0973 2.15077 49.7404C2.31361 49.5838 2.4827 49.4084 2.66433 49.2143C2.42634 50.3541 2.11946 51.9011 1.74994 53.8426C1.32407 56.0346 1.09234 57.2621 1.05476 57.4688C1.02345 57.6567 1.01092 57.8383 1.02971 57.9949C1.05476 58.189 1.16749 58.3143 1.35538 58.3581H1.41801C1.54953 58.3581 1.66852 58.2955 1.76247 58.1828C1.83762 58.0888 1.91904 57.9385 2.01299 57.7193C2.15077 57.4437 2.31361 57.0304 2.52028 56.4918C2.78332 55.8279 3.23425 54.6254 3.8856 52.8217C4.4931 51.162 4.92524 49.9846 5.23839 49.2017C5.27596 49.4397 5.30101 49.7028 5.47011 49.828C5.658 49.9721 5.97741 50.066 6.42834 49.7466C6.57239 49.6401 6.7227 49.5024 6.89806 49.327C6.81664 50.0848 6.96069 50.5107 7.34899 50.636C7.41162 50.661 7.48051 50.6798 7.55567 50.6798C7.75608 50.6798 7.96902 50.6046 8.2258 50.4481C8.45752 50.2978 8.68299 50.1287 8.8834 49.9345C9.09008 49.7466 9.29675 49.5212 9.52848 49.2644C9.74142 49.0139 9.91678 48.8072 10.0233 48.6569C10.1297 48.5128 10.2362 48.375 10.3301 48.2498C10.493 48.3375 10.6621 48.4001 10.8437 48.4001C11.0316 48.4064 11.232 48.375 11.4449 48.2999C11.6328 48.231 11.8019 48.1684 11.9272 48.112C11.9773 48.0869 12.0399 48.0494 12.1151 48.0118C11.7017 49.1391 11.4387 50.041 11.3385 50.6798C11.2007 51.494 11.3322 51.9574 11.7205 52.0827C11.7831 52.1077 11.852 52.1265 11.9272 52.1265C12.1777 52.1265 12.4658 51.9825 12.8102 51.6881C13.1359 51.4126 13.4679 51.0556 13.7935 50.6234C14.1129 50.1976 14.4073 49.7779 14.6829 49.3646C14.6829 49.7779 14.8707 49.9408 15.0273 49.9909C15.259 50.0848 15.5409 49.9909 15.8478 49.709C16.1045 49.4648 16.3989 49.1579 16.712 48.7947C16.8749 49.8343 17.2193 50.3917 17.7767 50.4794C17.8331 50.4856 17.8769 50.4919 17.9208 50.4919C18.5095 50.4919 19.1295 49.9721 19.8059 48.9575C19.6681 49.5086 19.5241 50.0034 19.3926 50.5671C18.998 52.2079 18.6974 53.5607 18.497 54.5816C18.3905 55.1265 18.3091 55.5461 18.2778 55.8279C18.2339 56.0408 18.2277 56.2162 18.2527 56.3477C18.2778 56.5106 18.378 56.617 18.5346 56.6609C18.5721 56.6671 18.6097 56.6734 18.641 56.6734C18.735 56.6734 18.8226 56.6358 18.9041 56.5669C18.9667 56.5043 19.0105 56.4479 19.0481 56.3853C19.0732 56.3289 19.1107 56.2475 19.1546 56.1411C19.1922 56.0596 19.1922 55.972 19.1546 55.8905C19.1233 55.8342 19.0794 55.7715 18.998 55.7402C19.1421 54.7382 19.5304 52.947 20.1379 50.423C20.6577 48.2748 21.1838 46.2582 21.6911 44.4294C25.9123 44.348 27.9414 44.3605 28.8871 44.3981C28.6241 45.206 28.3548 46.1016 28.0855 47.1726C27.9978 47.0035 27.835 46.8845 27.622 46.8344C27.3089 46.7529 26.9519 46.8344 26.5636 47.0786C26.3381 47.2227 26.1565 47.517 25.9624 47.7613C25.9561 47.755 25.9561 47.7425 25.9436 47.7362C25.8684 47.6924 25.787 47.6736 25.6868 47.6924C25.5929 47.7049 25.524 47.7425 25.4613 47.8114C24.6096 48.8385 23.833 49.5713 23.1503 49.9846C22.8184 50.1913 22.5553 50.2351 22.3549 50.1099C22.3299 50.0848 22.2986 50.0598 22.2672 50.0284C22.2485 50.0034 22.2234 49.9596 22.167 49.8468C22.1295 49.7591 22.1044 49.6589 22.0919 49.5337C22.0856 49.4084 22.0919 49.2393 22.1357 49.0264C22.1733 48.8197 22.2297 48.588 22.3174 48.3375C22.8873 47.9241 23.3194 47.5295 23.62 47.1663C23.9457 46.7592 24.0522 46.4461 23.9457 46.2018C23.8893 46.0703 23.7704 45.9137 23.4697 45.92C23.1816 45.9262 22.8748 46.1204 22.524 46.515C22.1984 46.8907 21.9165 47.398 21.6911 48.0306V48.0556C21.547 48.4439 21.4468 48.7884 21.4092 49.0953C21.3717 49.4147 21.3904 49.6715 21.4468 49.8719C21.5094 50.0723 21.5783 50.2289 21.6597 50.3416C21.7537 50.4543 21.8414 50.5483 21.9478 50.6172C22.1357 50.7299 22.3549 50.7925 22.5992 50.7925C22.9061 50.7925 23.2255 50.6986 23.5386 50.5107C24.1085 50.1662 24.7411 49.5713 25.3987 48.8635C25.3423 49.0577 25.2359 49.2518 25.2233 49.446C25.2171 49.8907 25.3611 50.2038 25.668 50.3917C26.1127 50.6046 26.6262 50.3541 27.1836 49.6464C27.3465 49.4585 27.4968 49.2644 27.6471 49.0702C27.5532 49.5024 27.4592 49.9408 27.3778 50.3854C27.1523 51.5441 26.9895 52.496 26.8893 53.21C26.8266 53.6609 26.8016 54.0054 26.7891 54.2371C26.7828 54.5691 26.8267 54.6881 26.8517 54.7444C26.8955 54.8446 26.9832 54.9135 27.121 54.9574C27.1586 54.9636 27.2024 54.9699 27.24 54.9699C27.4279 54.9699 27.6095 54.8196 27.7724 54.5127C27.8162 54.4375 27.8162 54.3499 27.7911 54.2684C27.7536 54.1933 27.7035 54.1307 27.6033 54.0806C27.5657 54.068 27.5281 54.0618 27.503 54.0618C27.5406 53.3916 27.7285 52.1892 28.0604 50.4982C28.2671 49.446 28.4863 48.4377 28.7118 47.4982C28.9936 47.0536 29.2504 46.5776 29.4884 46.0891C29.7201 45.5943 29.9017 45.206 30.0145 44.9304C30.1335 44.6549 30.2775 44.2854 30.4466 43.8282L30.5844 43.49L30.622 43.4649ZM27.6158 47.9742C27.3339 48.3938 27.0208 48.826 26.6763 49.2518C26.5323 49.4147 26.407 49.5462 26.2943 49.6402C26.1377 49.7654 26.0876 49.7905 26.0688 49.7967C26.0626 49.7967 26.0501 49.7967 26.0501 49.7967C26.0438 49.7967 26.0062 49.7591 25.9874 49.6276C25.9624 49.4961 25.9812 49.3145 26.0125 49.0953C26.0563 48.8698 26.1377 48.6506 26.2567 48.4377C26.4384 48.1057 26.6513 47.8427 26.883 47.6673C27.096 47.4982 27.2776 47.4106 27.4279 47.4106H27.4592C27.5469 47.4293 27.5406 47.6047 27.5344 47.6924C27.5093 47.8051 27.5406 47.9053 27.6158 47.9742ZM10.4992 47.3918C10.493 47.3103 10.4992 47.2164 10.5368 47.1099C10.5807 46.9471 10.6621 46.778 10.7811 46.6152C10.9188 46.4461 11.0316 46.3083 11.1506 46.2081C11.1568 46.2018 11.1756 46.1893 11.1882 46.183C11.0817 46.4273 10.8813 46.8093 10.5055 47.3918M47.3126 46.7905H46.5298V50.2289H47.3126V46.7905ZM66.0325 46.7905H65.2496V50.2289H66.0325V46.7905ZM71.5 46.7905H70.7046V50.2289H71.5V46.7905Z"></path>
<path fill="white" d="M61.5443 18.3382C61.3126 18.3382 61.0996 18.2756 60.9117 18.144C60.7239 18.0125 60.5861 17.8497 60.4859 17.6618C60.3794 17.4802 60.3293 17.2735 60.3293 17.0606C60.3293 16.7224 60.442 16.4217 60.6738 16.1712C60.9055 15.9144 61.1936 15.7892 61.5443 15.7892C61.895 15.7892 62.1831 15.9207 62.4148 16.1712C62.6466 16.428 62.7593 16.7224 62.7593 17.0668C62.7593 17.4113 62.6466 17.7119 62.4148 17.9562C62.1894 18.2129 61.895 18.3382 61.5443 18.3382ZM56.3273 38.2543C56.2146 38.2543 56.1081 38.2104 56.0267 38.1227C55.9453 38.0413 55.9077 37.9411 55.9077 37.8221V28.3964C55.9077 27.3192 55.701 26.3735 55.3064 25.5906C54.9181 24.8266 54.3294 24.2253 53.5528 23.7995C52.795 23.3798 51.8681 23.1669 50.7971 23.1669C48.793 23.2107 47.2962 23.8558 46.2315 25.1335C45.1918 26.4048 44.6595 28.0833 44.6595 30.1187V37.8159C44.6595 38.0852 44.4966 38.2417 44.2085 38.2417H43.576C43.432 38.2417 43.3317 38.1979 43.2566 38.1039C43.1877 38.0225 43.1501 37.9223 43.1501 37.8096V28.3839C43.1501 26.7681 42.6992 25.4779 41.7973 24.551C40.8892 23.6116 39.6492 23.1606 38.0145 23.1606C36.0292 23.2045 34.4885 23.8683 33.4426 25.1272C32.3842 26.4048 31.8518 28.0833 31.8518 30.1125V37.8096C31.8518 37.9223 31.808 38.0288 31.7203 38.1102C31.6451 38.1916 31.5387 38.2355 31.4259 38.2355H30.7558L30.3926 38.0351L30.3362 37.8096V22.0709C30.3362 21.9644 30.38 21.8579 30.4677 21.7703C30.5554 21.6826 30.6556 21.6387 30.7621 21.6387H31.4259L31.7892 21.8454L31.8456 22.0709V23.6742C31.8456 23.9247 31.952 24.075 32.1963 24.1627C32.2714 24.169 32.3341 24.1752 32.3842 24.1752C32.5908 24.1752 32.6848 24.1126 32.7725 24.0061C34.0438 22.4592 35.9227 21.6513 38.359 21.6074C39.6304 21.6074 40.7639 21.8767 41.7535 22.4091C42.7368 22.9352 43.4946 23.7681 43.9894 24.8767C44.0958 25.0646 44.2461 25.1648 44.4528 25.171C44.6845 25.171 44.8348 25.0896 44.9601 24.9205C46.1751 22.7661 48.2356 21.6513 51.079 21.6074C53.0956 21.6074 54.6739 22.1961 55.7574 23.3548C56.8534 24.5072 57.4045 26.1105 57.4045 28.1271V37.8033C57.4045 38.0789 57.2542 38.2292 56.9786 38.2292H56.321L56.3273 38.2543ZM61.1998 38.2543C61.0871 38.2543 60.9869 38.2104 60.893 38.129C60.8115 38.0476 60.7677 37.9474 60.7677 37.8284V22.0897C60.7677 21.9707 60.8115 21.8705 60.893 21.7891C60.9869 21.7014 61.0871 21.6638 61.1998 21.6638H61.8574C61.9639 21.6638 62.0704 21.7076 62.1518 21.7891C62.2332 21.8767 62.2771 21.9769 62.2771 22.0897V37.8284C62.2771 37.9411 62.2332 38.0413 62.1518 38.129C62.0641 38.2104 61.9639 38.2605 61.8512 38.2605H61.1936L61.1998 38.2543ZM79.1619 38.2543C79.0554 38.2543 78.9489 38.2104 78.8675 38.1227C78.7798 38.0351 78.736 37.9348 78.736 37.8221V28.3964C78.736 27.5447 78.6233 26.8307 78.379 26.1919C78.1536 25.5531 77.8091 25.0019 77.3582 24.551C76.9135 24.1063 76.3624 23.7619 75.7173 23.5239C75.0722 23.2859 74.3269 23.1669 73.5065 23.1669C71.6652 23.2107 70.1683 23.7744 69.0786 24.8454C67.9763 25.9288 67.35 27.4069 67.206 29.2482V37.8159C67.206 37.9348 67.1621 38.0413 67.0807 38.1165C66.9993 38.1979 66.8928 38.2417 66.7864 38.2417H66.0912C65.9784 38.2417 65.8782 38.1979 65.7968 38.1102C65.7091 38.0288 65.6653 37.9223 65.6653 37.8096V22.0709C65.6653 21.9582 65.7154 21.8579 65.7968 21.7703C65.8782 21.6888 65.9784 21.645 66.0912 21.645H66.7864C67.0494 21.645 67.206 21.8016 67.206 22.0709V23.6429C67.206 23.8809 67.3187 24.0437 67.5567 24.1314C67.6319 24.1376 67.6945 24.1439 67.7509 24.1439C67.9638 24.1439 68.0577 24.0813 68.1454 23.9748C69.4356 22.4467 71.3395 21.6513 73.8196 21.6074C75.1536 21.6074 76.3122 21.8705 77.2767 22.3903C78.2475 22.9101 78.999 23.6742 79.5063 24.6575C80.0199 25.6407 80.2704 26.7743 80.2704 28.1334V37.8096C80.2704 38.0852 80.1076 38.2355 79.8132 38.2355H79.1556L79.1619 38.2543ZM25.6328 39.081C25.5012 39.081 25.376 39.0309 25.282 38.9432L21.5681 35.2668C21.4679 35.1729 21.4115 35.0351 21.4178 34.8973C21.4178 34.7596 21.4742 34.6343 21.5744 34.5403L21.8061 34.3337C24.2674 32.054 25.7455 28.7785 25.7455 25.5781C25.7455 19.096 20.4658 13.8164 13.9837 13.8164C7.50161 13.8164 2.22198 19.0897 2.22198 25.5781C2.22198 25.9414 2.24077 26.3046 2.27834 26.6616C2.65412 30.745 5.18434 34.39 8.87946 36.175C10.3137 36.8639 12.0798 37.2772 13.6017 37.2772C13.9587 37.2772 14.3219 37.2522 14.6727 37.2083C15.0046 37.1457 15.2739 37.0894 15.6058 36.9641C16.7519 36.5194 17.5724 35.724 18.0609 34.5842C18.4429 33.6886 18.3991 32.6677 17.9356 31.722C17.3782 30.5634 16.3073 29.6866 15.1361 29.4235L14.1528 29.1981L16.8459 25.2211C16.921 25.1147 16.9085 24.9957 16.8709 24.9205C16.8271 24.8328 16.7457 24.7827 16.6517 24.7827H11.6852C11.4159 24.7827 11.203 24.5573 11.203 24.288V23.7118C11.203 23.4299 11.4159 23.217 11.6852 23.217H19.2383C19.4137 23.217 19.5702 23.3172 19.6517 23.48C19.7393 23.6554 19.7268 23.8558 19.6141 24.0124L16.4451 28.3714C17.635 28.7534 18.6872 29.7743 19.2822 31.0081C19.946 32.3859 20.0024 33.8765 19.4387 35.2105C18.8062 36.7011 17.5912 37.8597 16.0192 38.4609C15.7937 38.5486 15.6371 38.5862 15.4367 38.6363L15.2989 38.6676L15.1799 38.5424C14.7541 38.7929 14.1278 38.8618 13.4764 38.8618C11.0276 38.8618 8.82935 37.891 8.20932 37.5904C4.01317 35.5612 1.13849 31.4277 0.712616 26.7931C0.675039 26.386 0.65625 25.9727 0.65625 25.5656C0.65625 18.2067 6.64359 12.2256 14.0025 12.2256C21.3614 12.2256 27.3488 18.2129 27.3488 25.5656C27.3488 28.8411 26.0085 32.173 23.6787 34.7094C23.5785 34.8159 23.5785 34.985 23.685 35.0915L26.4219 37.7971C26.616 37.9849 26.6223 38.3044 26.4344 38.5048L26.0273 38.9181C25.9271 39.0183 25.8018 39.0684 25.6641 39.0684"></path>
</svg>
