<svg xmlns="http://www.w3.org/2000/svg" fill="none" viewBox="0 0 121 65" height="65" width="121">
<path fill="white" d="M50.6859 12.9899V6.19865L46.0782 8.71904V10.4635L50.6859 12.9839V12.9899ZM49.4226 9.1341H46.5654L49.4226 7.57013V9.1341ZM49.4226 11.6244L46.5534 10.0604H49.4226V11.6244ZM45.5849 7.913L50.1986 5.39261L43.9849 2V7.04079L45.5849 7.913ZM46.03 4.50836L44.5984 6.85431V3.72036L46.03 4.50836ZM48.3158 5.75352L45.4526 7.31749L46.8842 4.96552L48.3158 5.75352ZM43.9849 17.1945L50.1926 13.7959L45.5789 11.2815L43.9788 12.1538V17.1945H43.9849ZM46.8842 14.223L45.4586 11.8771L48.3158 13.441L46.8902 14.217L46.8842 14.223ZM44.5984 12.3402L46.03 14.6922L44.5984 15.4742V12.3402ZM46.8962 18.8307C45.8496 18.8307 44.1473 18.9089 43.5036 18.9089C42.8059 18.9089 41.1035 18.8307 39.6779 18.8307C39.2749 18.8307 39.0824 18.8848 39.0824 19.0653C39.0824 19.2457 39.2448 19.3059 39.5456 19.3059C39.9185 19.3059 40.3817 19.33 40.5983 19.3841C41.4885 19.5646 41.7051 19.9856 41.7592 20.8879C41.8133 21.73 41.8133 22.4699 41.8133 26.4761V34.0493C41.8133 39.2224 41.8434 41.8631 39.7922 43.8903C39.2508 44.4196 38.8478 44.7083 38.4989 44.8948C38.0418 45.1354 37.9094 45.2377 37.9094 45.37C37.9094 45.5024 38.0177 45.5806 38.126 45.5806C38.2583 45.5806 38.4749 45.5264 38.6674 45.4242C39.2328 45.1595 39.6659 44.9489 40.0148 44.7384C42.6013 43.1865 44.027 41.3639 44.5924 39.7518C45.1398 38.272 45.242 36.5817 45.242 35.0779C45.242 33.7606 45.1578 32.4913 45.1578 31.3545V26.4761C45.1578 22.4699 45.1578 21.724 45.212 20.8879C45.2721 19.9616 45.4827 19.5104 46.2165 19.3841C46.5413 19.33 46.6977 19.3059 46.9985 19.3059C47.3173 19.3059 47.4797 19.2518 47.4797 19.0653C47.4797 18.8788 47.2872 18.8307 46.9083 18.8307M41.4043 7.913L43.0044 7.04079V2L36.7966 5.39261L41.4043 7.913ZM42.3848 6.8483L40.9592 4.50836L42.3848 3.72638V6.85431V6.8483ZM41.5366 7.31749L38.6734 5.74751L40.105 4.96552L41.5366 7.31749ZM40.9111 8.72506L36.3034 6.20467V12.9959L40.9111 10.4755V8.72506ZM40.4238 9.12808H37.5666V7.56412L40.4238 9.12808ZM40.4298 10.0604L37.5666 11.6244V10.0604H40.4298ZM36.7906 13.7959L42.9983 17.1885V12.1477L41.3983 11.2755L36.7906 13.7959ZM40.9592 14.6922L42.3848 12.3462V15.4742L40.9592 14.6922ZM40.105 14.223L38.6794 13.447L41.5427 11.8831L40.111 14.229L40.105 14.223ZM35.0702 35.2644C33.3138 31.2582 28.9106 20.4909 28.2489 19.0412C27.9722 18.4337 27.8098 18.1991 27.5572 18.1991C27.2805 18.1991 27.1181 18.4878 26.7932 19.2578L19.8877 35.8238C19.3343 37.1411 18.811 38.0374 17.5418 38.1938C17.3252 38.2239 16.9342 38.2479 16.6876 38.2479C16.4711 38.2479 16.3568 38.3021 16.3568 38.4585C16.3568 38.675 16.5252 38.7232 16.8801 38.7232C18.3177 38.7232 19.8276 38.645 20.1344 38.645C20.9885 38.645 22.1675 38.7232 23.0518 38.7232C23.3585 38.7232 23.5209 38.675 23.5209 38.4585C23.5209 38.2961 23.4367 38.2479 23.1059 38.2479H22.6908C21.8427 38.2479 21.5961 37.8991 21.5961 37.4299C21.5961 37.1111 21.7284 36.4855 22.0111 35.8238L23.4969 32.0522C23.551 31.8898 23.6052 31.8417 23.7435 31.8417H29.8791C30.0114 31.8417 30.0956 31.8898 30.1558 32.0222L32.3574 37.6163C32.4957 37.9352 32.3032 38.1697 32.1107 38.2239C31.834 38.2479 31.7258 38.3021 31.7258 38.4585C31.7258 38.645 32.0566 38.645 32.5498 38.675C34.7514 38.7232 36.7545 38.7232 37.747 38.7232C38.7395 38.7232 39.0102 38.675 39.0102 38.4585C39.0102 38.272 38.8779 38.2479 38.6553 38.2479C38.3245 38.2479 37.9155 38.2239 37.5004 38.1397C36.9229 38.0073 36.1289 37.6404 35.0823 35.2644M29.4881 30.3559C29.5182 30.4401 29.4881 30.5183 29.3557 30.5183H24.2969C24.1826 30.5183 24.1586 30.4401 24.1826 30.3319L26.709 23.8414C26.7391 23.7391 26.7993 23.6008 26.8775 23.6008C26.9557 23.6008 26.9917 23.7331 27.0158 23.8414L29.4881 30.3559ZM19.5268 22.2053C19.5268 21.5195 19.611 19.6969 19.611 19.1435C19.611 18.7465 19.5809 18.5901 19.3824 18.5901C19.1599 18.5901 18.4862 18.8548 16.6756 18.8548H5.51126C4.58491 18.8548 3.50818 18.8006 2.6901 18.7224C1.99233 18.6683 1.7036 18.4036 1.48104 18.4036C1.31261 18.4036 1.2284 18.56 1.14418 18.9089C1.09005 19.1194 0.554688 21.5195 0.554688 21.9406C0.554688 22.2293 0.608825 22.3616 0.801313 22.3616C0.96974 22.3616 1.05997 22.2594 1.11411 22.0428C1.17426 21.8323 1.31261 21.5135 1.59533 21.1225C2.02241 20.539 2.6901 20.4067 4.33227 20.3586L8.53092 20.2503V31.0657C8.53092 33.4899 8.53092 35.5712 8.39257 36.684C8.30836 37.4479 8.13993 38.0254 7.57449 38.1337C7.32185 38.1878 6.985 38.2359 6.56393 38.2359C6.22708 38.2359 6.11279 38.3201 6.11279 38.4465C6.11279 38.6269 6.31129 38.7171 6.67822 38.7171C7.80307 38.7171 9.58359 38.6329 10.2332 38.6329C11.0212 38.6329 12.7957 38.7171 14.6545 38.7171C14.9672 38.7171 15.1898 38.6269 15.1898 38.4465C15.1898 38.3141 15.0515 38.2359 14.7387 38.2359C14.3176 38.2359 13.698 38.1878 13.301 38.1337C12.4589 38.0314 12.2905 37.4479 12.2062 36.708C12.0619 35.5712 12.0619 33.4899 12.0619 31.0657V20.2503L15.6169 20.3345C18.1253 20.3886 18.8892 21.1285 18.9433 21.8082L18.9734 22.097C19.0035 22.494 19.0576 22.6203 19.2802 22.6203C19.4486 22.6203 19.5088 22.4639 19.5328 22.2053"></path>
<path fill="white" d="M73.5245 22.494C73.8674 22.2413 73.8193 21.8143 73.8253 21.6218V20.8037C73.1335 21.0022 72.6523 21.0142 71.5756 21.0624C71.0583 21.0804 70.6793 21.1466 70.4507 21.2248C70.0236 21.3751 69.8793 21.694 69.8733 21.9646C69.8793 22.2173 70.0056 22.4218 70.3485 22.6083C70.6853 22.7887 71.1786 22.891 71.8342 22.891C72.5561 22.891 73.2177 22.7226 73.5305 22.494M88.7792 17.9284L87.8589 19.0593C87.8589 19.0593 86.9446 18.3495 85.3445 18.3495C84.7069 18.3495 84.2257 18.4156 83.9249 18.542C83.6181 18.6743 83.5219 18.8187 83.5219 19.0051C83.5219 19.5886 85.4648 19.6127 86.1325 19.6849C87.101 19.7931 87.7927 19.9977 88.2318 20.3044C88.7191 20.6413 88.9717 21.1947 88.9717 21.8864C88.9717 22.1872 88.9116 22.506 88.8514 22.6564C88.7131 23.0895 88.4484 23.4384 88.0694 23.7091C87.6965 23.9737 87.2333 24.1482 86.6739 24.2444C86.331 24.3046 85.9701 24.3347 85.5611 24.3407C83.3655 24.3587 82.0782 23.294 82.0782 23.294L82.9925 22.1812C82.9925 22.1812 84.0512 22.8729 85.537 22.8729C86.1866 22.8729 86.6799 22.7767 87.0167 22.5902C87.3596 22.3977 87.4799 22.1992 87.4799 21.9466C87.4799 21.6699 87.3356 21.4774 86.9085 21.327C86.6799 21.2488 86.3069 21.1947 85.7896 21.1646C84.9776 21.1165 84.4783 21.0624 84.2918 21.0323C83.5099 20.8999 83.0347 20.7135 82.6617 20.4067C82.2827 20.0999 82.0301 19.5766 82.0301 18.9991C82.0301 18.3916 82.373 17.8622 82.9504 17.4652C83.5279 17.0682 84.3219 16.8757 85.3204 16.8757C87.3115 16.8757 88.7792 17.9224 88.7792 17.9224M77.9638 19.0533V21.1165C77.9638 21.5496 77.9818 22.8609 79.227 22.8609C79.9187 22.8609 80.5323 22.1812 80.5323 22.1812L81.4466 23.294C81.4466 23.294 80.5323 24.3407 79.1729 24.3407C76.4058 24.3407 76.4479 21.6879 76.4479 21.2789V16.5629L77.9638 15.8952V17.6818H80.9113V19.0593H77.9638V19.0533ZM75.3171 22.0549C75.3171 22.4278 75.1968 23.0293 74.7456 23.4624C74.2824 23.9016 73.0553 24.3407 71.7981 24.3467C70.7154 24.3467 69.8793 24.1482 69.2778 23.7271C68.6822 23.306 68.3634 22.6744 68.3694 21.8985C68.3634 21.2067 68.6221 20.6533 69.1093 20.3165C69.5484 20.0097 70.2522 19.8112 71.2267 19.6969C71.8944 19.6247 72.4839 19.5525 73.1456 19.4864C73.6929 19.4082 73.7892 19.2157 73.7892 19.0172C73.7832 18.8307 73.6929 18.6863 73.3862 18.554C73.0794 18.4277 72.6643 18.3615 72.0147 18.3615C70.4086 18.3615 69.5484 19.0593 69.5484 19.0593L68.6101 17.9344C68.6101 17.9344 70.0297 16.8938 72.0388 16.8938C73.0433 16.8938 73.8433 17.0863 74.4208 17.4833C74.9983 17.8803 75.3171 18.4577 75.3111 19.1615V22.0549H75.3171ZM62.2279 19.0051C62.2279 19.5886 64.1768 19.6127 64.8385 19.6849C65.8069 19.7931 66.5047 19.9977 66.9378 20.3044C67.425 20.6413 67.6777 21.1947 67.6777 21.8864C67.6777 22.1872 67.6175 22.506 67.5634 22.6564C67.4311 23.0895 67.1604 23.4384 66.7754 23.7091C66.4085 23.9737 65.9393 24.1482 65.3799 24.2444C65.043 24.3046 64.6701 24.3347 64.267 24.3407C62.0715 24.3587 60.7902 23.294 60.7902 23.294L61.7045 22.1812C61.7045 22.1812 62.7692 22.8729 64.249 22.8729C64.9047 22.8729 65.3979 22.7767 65.7287 22.5902C66.0716 22.3977 66.204 22.1992 66.204 21.9466C66.204 21.6699 66.0536 21.4774 65.6325 21.327C65.4039 21.2488 65.025 21.1947 64.5076 21.1646C63.7016 21.1165 63.1963 21.0624 63.0159 21.0323C62.2339 20.8999 61.7527 20.7135 61.3797 20.4067C61.0068 20.0999 60.7481 19.5766 60.7481 18.9991C60.7481 18.3916 61.091 17.8622 61.6684 17.4652C62.2459 17.0682 63.0399 16.8757 64.0445 16.8757C66.0415 16.8757 67.5032 17.9224 67.5032 17.9224L66.5769 19.0533C66.5769 19.0533 65.6626 18.3435 64.0625 18.3435C63.4249 18.3435 62.9437 18.4096 62.6429 18.5359C62.3361 18.6683 62.2399 18.8126 62.2399 18.9991M90.9988 20.4428C90.9988 10.2529 82.7459 2 72.5561 2C62.3662 2 54.1133 10.259 54.1133 20.4428C54.1133 30.6266 62.3722 38.8856 72.5561 38.8856C82.7399 38.8856 90.9988 30.6266 90.9988 20.4428Z"></path>
</svg>
