<svg xmlns="http://www.w3.org/2000/svg" fill="none" viewBox="0 0 79 65" height="65" width="79">
<path fill="white" d="M78.5686 37.8775C78.5686 36.8516 78.347 35.9333 77.9166 35.1569C77.4855 34.3804 76.959 33.7342 76.3579 33.2241C75.7568 32.7197 74.9749 32.1415 74.0281 31.5124C73.3653 31.076 72.8438 30.7132 72.4693 30.4185C72.1014 30.1351 71.7951 29.8063 71.5515 29.4549C71.3135 29.1092 71.1944 28.7294 71.1944 28.3214C71.1944 27.7205 71.3928 27.2048 71.7893 26.7967C72.181 26.3886 72.7871 26.1846 73.5919 26.1846C73.9664 26.1846 74.3171 26.2752 74.6521 26.4623C74.9864 26.6493 75.2697 26.8987 75.4964 27.2048C75.7231 27.5109 75.8701 27.8453 75.9325 28.1967L75.9497 28.276H76.2388V26.757L76.2158 26.7287C75.9949 26.485 75.6492 26.2526 75.1901 26.0372C74.731 25.8218 74.1981 25.7142 73.6092 25.7142C72.4923 25.7142 71.6423 26.0259 71.0867 26.6493C70.5313 27.2671 70.2536 28.0549 70.2536 28.9958C70.2536 29.608 70.4066 30.1634 70.7013 30.6452C70.9961 31.1213 71.3645 31.5407 71.8008 31.8864C72.2319 32.2265 72.8208 32.646 73.5525 33.1277C74.3795 33.6719 75.0488 34.1593 75.5473 34.573C76.0351 34.9811 76.4597 35.4856 76.7997 36.0864C77.1397 36.6758 77.3097 37.3787 77.3097 38.1721C77.3097 38.9657 77.129 39.6742 76.7775 40.3317C76.426 40.9891 75.916 41.5162 75.2697 41.913C74.6177 42.304 73.8523 42.5025 72.9966 42.5025C72.2828 42.5025 71.6251 42.3494 71.0471 42.0376C70.4689 41.7316 69.9985 41.2951 69.6584 40.7397C69.3184 40.1843 69.1426 39.5381 69.1426 38.8126C69.1426 38.2459 69.273 37.7697 69.5338 37.3957C69.7944 37.0159 70.1288 36.7325 70.5313 36.5568C71.3361 36.1941 72.186 36.1998 72.8438 36.5285C73.1666 36.6928 73.4334 36.9139 73.6206 37.186C73.8071 37.458 73.904 37.7527 73.904 38.0645C73.904 38.586 73.7792 39.028 73.5295 39.3908C73.2799 39.7535 72.9514 40.0256 72.5547 40.2126L72.4643 40.2523L72.5834 40.513L72.668 40.4847C73.2405 40.3033 73.7282 39.9859 74.1249 39.5438C74.5216 39.0904 74.7253 38.5803 74.7253 38.0248C74.7253 37.5374 74.6012 37.0726 74.3516 36.6532C74.1019 36.2338 73.7505 35.8937 73.2971 35.6443C72.8495 35.3949 72.328 35.2702 71.7441 35.2702C71.0641 35.2702 70.4463 35.4233 69.9135 35.7236C69.3807 36.024 68.9556 36.4548 68.6552 36.9989C68.5815 37.1292 68.5192 37.2653 68.4682 37.4013H68.3718L68.3435 37.4297C68.0091 37.7414 67.6803 37.9001 67.3686 37.9001H63.2651V32.969H65.4245C65.7419 32.969 65.9743 33.0937 66.133 33.3545L66.1613 33.3998H66.4278V32.0338H66.1613L66.133 32.0848C65.9856 32.3513 65.7533 32.4816 65.4245 32.4816H63.2651V29.4719H66.8132C67.1306 29.4719 67.4593 29.6307 67.7881 29.9424L67.8164 29.9707H68.0997L67.7881 28.9845H61.3946V29.2452L61.4456 29.2736C61.7177 29.4152 61.8538 29.5967 61.8538 29.829V37.5317C61.8538 37.7641 61.7234 37.9455 61.4456 38.0871L61.3946 38.1155V38.3762H68.2358C68.2188 38.5349 68.2075 38.6936 68.2075 38.858C68.2075 39.5834 68.4001 40.2693 68.7855 40.9097C69.171 41.5446 69.7321 42.0604 70.4519 42.4515C71.1717 42.8369 72.0217 43.0352 72.9801 43.0352C74.0797 43.0352 75.0653 42.7972 75.9103 42.3324C76.7545 41.8676 77.4238 41.2271 77.8829 40.445C78.3419 39.6572 78.5794 38.7956 78.5794 37.8775H78.5686ZM60.4141 33.4565L60.4651 33.4281V33.1674H58.1413V33.4281L58.1923 33.4565C58.4643 33.6038 58.6003 33.8192 58.6003 34.1083V37.7811C57.9883 37.9398 57.4045 38.0191 56.8603 38.0191C56.1065 38.0191 55.4547 37.8264 54.9219 37.4466C54.3891 37.0669 53.9754 36.5398 53.7033 35.8937C53.4255 35.2362 53.2839 34.4994 53.2839 33.7059C53.2839 32.9123 53.4255 32.1585 53.7033 31.501C53.981 30.8492 54.3891 30.3278 54.9219 29.9367C55.4547 29.5513 56.1065 29.3586 56.8603 29.3586C57.4158 29.3586 57.9372 29.489 58.402 29.7383C58.8668 29.9934 59.2295 30.3051 59.4676 30.6679L59.4959 30.7132H59.7453V29.574L59.6942 29.5457C59.4392 29.4039 59.0311 29.2509 58.487 29.1035C57.9429 28.9505 57.3931 28.8768 56.8603 28.8768C55.7891 28.8768 54.8596 29.0978 54.0944 29.5287C53.3235 29.9594 52.7397 30.5489 52.3487 31.2744C51.9632 31.9998 51.7649 32.816 51.7649 33.7059C51.7649 34.5957 51.9632 35.4005 52.3487 36.1261C52.7397 36.8516 53.3235 37.441 54.0944 37.8661C54.8596 38.2912 55.7947 38.5065 56.8603 38.5065C57.4328 38.5065 58.0506 38.4159 58.7024 38.2402C59.3655 38.0588 59.8077 37.8831 60.0513 37.6961L60.0911 37.6677V37.4863L60.0457 37.458C60.0457 37.458 60.0286 37.441 60.023 37.4297C60.0173 37.4127 60.0116 37.39 60.0116 37.373V34.114C60.0116 33.8192 60.1477 33.6038 60.4197 33.4622L60.4141 33.4565ZM50.2742 36.024C50.6653 35.3155 50.8637 34.5277 50.8637 33.6832C50.8637 32.8387 50.671 32.0338 50.2855 31.3254C49.9058 30.6112 49.3277 30.0387 48.5682 29.6193C47.8143 29.1999 46.8962 28.9902 45.8363 28.9902H42.2428V29.2509L42.2939 29.2792C42.5715 29.4266 42.7019 29.642 42.7019 29.9311V37.4523C42.7019 37.7414 42.5659 37.9511 42.2939 38.1041L42.2428 38.1325V38.3932H45.8363C46.8679 38.3819 47.7747 38.1665 48.5342 37.7414C49.2937 37.3163 49.8775 36.7438 50.2685 36.0353L50.2742 36.024ZM49.3447 33.6832C49.3447 34.454 49.203 35.1739 48.931 35.8143C48.6532 36.4491 48.2452 36.9649 47.718 37.339C47.1909 37.7131 46.5391 37.9001 45.7853 37.9001H44.1132V29.4719H45.7966C46.5448 29.4833 47.1909 29.676 47.7237 30.0444C48.2565 30.4185 48.6646 30.9286 48.9366 31.5577C49.2086 32.1982 49.3447 32.9123 49.3447 33.6832ZM38.6267 38.3819H40.9279V38.1211L40.8768 38.0928C40.6048 37.9511 40.4687 37.7414 40.4687 37.4466V29.9254C40.4687 29.6307 40.5992 29.4152 40.8768 29.2792L40.9279 29.2509V28.9902H38.6267V29.2509L38.6777 29.2792C38.9554 29.4266 39.0858 29.642 39.0858 29.9311V37.4523C39.0858 37.7414 38.9498 37.9511 38.6777 38.1041L38.6267 38.1325V38.3932V38.3819ZM36.5862 38.3819H37.4478V38.0815H37.3514C37.2437 38.0815 37.1134 38.0305 36.9717 37.9228C36.813 37.8094 36.6599 37.6621 36.5069 37.4863C36.3482 37.305 36.2518 37.1916 36.2178 37.1462L34.3248 34.8791C34.8632 34.8451 35.3507 34.7148 35.7814 34.488C36.2688 34.233 36.6542 33.8759 36.932 33.4281C37.2097 32.9804 37.3514 32.4816 37.3514 31.9375C37.3514 31.3934 37.2097 30.906 36.9263 30.4525C36.6429 30.0047 36.2575 29.642 35.7814 29.3812C35.3054 29.1205 34.7782 28.9902 34.2171 28.9902H29.4277V29.2509L29.4787 29.2792C29.7508 29.4266 29.8868 29.642 29.8868 29.9311V37.4523C29.8868 37.7414 29.7508 37.9511 29.4787 38.1041L29.4277 38.1325V38.3932H31.7515V38.1325L31.7005 38.1041C31.5929 38.0475 31.4965 37.9681 31.4114 37.8604C31.3321 37.7584 31.2924 37.6337 31.2924 37.4807V34.8961H32.7037L34.8575 37.5771C34.9823 37.7414 35.0956 37.8718 35.2033 37.9681C35.3167 38.0758 35.481 38.1721 35.7191 38.2572C35.9458 38.3422 36.2348 38.3875 36.5806 38.3875L36.5862 38.3819ZM33.4236 34.3974H31.2924V29.4662H33.2989C33.8543 29.4662 34.3305 29.5797 34.7215 29.795C35.1069 30.0104 35.4017 30.3108 35.6 30.6735C35.7984 31.042 35.9004 31.467 35.9004 31.9262C35.9004 32.3626 35.7928 32.765 35.5717 33.1334C35.3507 33.4961 35.0503 33.8022 34.6705 34.029C34.2908 34.2556 33.8713 34.3804 33.4179 34.3974H33.4236ZM26.0043 38.3819H28.5095V38.1211L28.4585 38.0928C28.1241 37.9115 27.8974 37.6791 27.7784 37.4013L24.0602 28.8542L24.0375 28.7975H23.7712L19.8036 37.4013C19.7753 37.4637 19.7413 37.5204 19.7016 37.5827C19.5259 37.8094 19.2935 37.8718 19.1518 37.8888H18.2846L15.139 37.8945V29.9197C15.139 29.6307 15.2693 29.4209 15.547 29.2679L15.598 29.2396V28.9788H13.2685V29.2396L13.3196 29.2679C13.5916 29.4096 13.7277 29.6193 13.7277 29.9141V37.4353C13.7277 37.7301 13.5973 37.9455 13.3196 38.0815L13.2685 38.1098V38.3705H20.5574V38.1098L20.5064 38.0815C20.3534 38.0021 20.2798 37.8888 20.2798 37.7357C20.2798 37.6451 20.3024 37.5601 20.3421 37.475L21.1242 35.786H25.5906L26.3331 37.4807C26.3501 37.5204 26.3614 37.5601 26.3614 37.6054C26.3614 37.7017 26.3274 37.7924 26.2651 37.8831C26.2026 37.9795 26.129 38.0418 26.0553 38.0815L25.9986 38.1098V38.3762L26.0043 38.3819ZM25.3808 35.2929H21.3567L23.4254 30.7925L25.3808 35.2929ZM13.2685 27.6469H13.5123V25.7028H13.2969L13.2742 25.7198C13.2458 25.7368 13.1835 25.7652 13.0928 25.8048C13.0135 25.8445 12.9171 25.8615 12.8094 25.8615C12.7131 25.8615 12.6564 25.8502 12.6338 25.8388C12.5827 25.8162 12.5147 25.7992 12.4354 25.7708C12.3617 25.7482 12.2654 25.7142 12.1576 25.6802C11.6022 25.4817 11.0524 25.3174 10.531 25.187C10.0038 25.0623 9.42001 25 8.80227 25C7.10189 25 5.56587 25.3854 4.23959 26.1392C2.90763 26.893 1.85907 27.9359 1.11657 29.2396C0.379748 30.5375 0 31.9885 0 33.5472C0 35.1059 0.357077 36.5625 1.06556 37.9398C1.77405 39.3171 2.87362 40.4563 4.33027 41.3235C5.78692 42.1907 7.59497 42.6271 9.70909 42.6271C12.1746 42.6271 14.1811 41.9413 15.683 40.5923L15.7681 40.513L15.5414 40.343L15.4847 40.3827C15.088 40.6661 14.6741 40.9211 14.2547 41.1421C13.841 41.3632 13.2912 41.5616 12.6111 41.7373C11.9366 41.913 11.1374 41.998 10.2362 41.998C8.73986 41.998 7.32289 41.6239 6.02497 40.8871C4.72703 40.1503 3.67279 39.1187 2.89629 37.8264C2.11979 36.5342 1.72304 35.0775 1.72304 33.4962C1.72304 31.9148 2.06878 30.4865 2.76026 29.2792C3.44608 28.0719 4.34161 27.1311 5.42418 26.4906C6.50108 25.8502 7.62897 25.5214 8.76827 25.5214C9.54475 25.5214 10.2476 25.6291 10.8541 25.8445C11.4661 26.0599 11.9706 26.3319 12.3617 26.6436C12.7528 26.961 13.0475 27.2841 13.2402 27.6072L13.2685 27.6525V27.6469Z"></path>
<path fill="white" d="M65.5044 48.1912V43.7079C65.5044 43.5435 65.5724 43.4358 65.7254 43.3565L65.7765 43.3281V43.1071H64.8072V43.3281L64.8582 43.3565C65.0113 43.4415 65.0793 43.5492 65.0793 43.7079V45.6463L61.911 43.1128H61.0154V43.3338L61.0664 43.3621C61.2195 43.4471 61.2875 43.5549 61.2875 43.7135V48.1969C61.2875 48.3556 61.2195 48.4689 61.0664 48.5483L61.0154 48.5766V48.7977H61.9846V48.5766L61.9336 48.5483C61.7806 48.4633 61.7126 48.3556 61.7126 48.1969V44.167L65.085 46.8762V48.1912C65.085 48.3499 65.0112 48.4633 64.8639 48.5426L64.8129 48.5709V48.792H65.7821V48.5709L65.7311 48.5426C65.5781 48.4633 65.5101 48.3556 65.5101 48.1912H65.5044ZM59.7174 47.4147C59.9555 46.9783 60.0802 46.4851 60.0802 45.9581C60.0802 45.4309 59.9612 44.9265 59.7288 44.49C59.4964 44.048 59.1394 43.6909 58.6745 43.4301C58.2098 43.1695 57.6487 43.0391 57.0025 43.0391C56.3564 43.0391 55.7953 43.1695 55.3305 43.4301C54.8657 43.6909 54.5086 44.048 54.2763 44.49C54.0439 44.9265 53.9249 45.4196 53.9249 45.9581C53.9249 46.4965 54.0439 46.9783 54.2763 47.4204C54.5086 47.8625 54.8657 48.2139 55.3305 48.4746C55.7953 48.7297 56.3564 48.8657 57.0025 48.8657C57.6487 48.8657 58.1928 48.7353 58.6576 48.4746C59.1224 48.2139 59.4794 47.8568 59.7174 47.4147ZM59.094 45.9581C59.094 46.4285 59.0146 46.8649 58.8503 47.2503C58.6916 47.63 58.4479 47.9361 58.1361 48.1629C57.8244 48.3839 57.4447 48.4973 57.0025 48.4973C56.5604 48.4973 56.1807 48.3839 55.8689 48.1629C55.5572 47.9418 55.3135 47.6357 55.1548 47.2503C54.9905 46.8649 54.9111 46.4285 54.9111 45.9581C54.9111 45.4876 54.9905 45.0455 55.1548 44.6601C55.3135 44.2804 55.5572 43.9743 55.8689 43.7475C56.1807 43.5209 56.5604 43.4075 57.0025 43.4075C57.4447 43.4075 57.8244 43.5209 58.1361 43.7475C58.4479 43.9743 58.6916 44.2804 58.8503 44.6601C59.0146 45.0455 59.094 45.4819 59.094 45.9581ZM51.4594 48.792H52.9103V48.5709L52.8593 48.5426C52.7063 48.4633 52.6383 48.3556 52.6383 48.1912V43.7079C52.6383 43.5435 52.7063 43.4358 52.8593 43.3565L52.9103 43.3281V43.1071H51.4594V43.3281L51.5104 43.3565C51.6634 43.4415 51.7314 43.5492 51.7314 43.7079V48.1912C51.7314 48.3499 51.6634 48.4633 51.5104 48.5426L51.4594 48.5709V48.792ZM50.2407 43.7759H50.4788L50.2691 43.1071H46.1428L45.9332 43.7759H46.1712L46.1996 43.7475C46.2732 43.6795 46.3582 43.6172 46.4659 43.5605C46.5623 43.5039 46.6586 43.4812 46.755 43.4812H47.7525V48.1969C47.7525 48.3556 47.6845 48.4689 47.5315 48.5483L47.4805 48.5766V48.7977H48.9484V48.5766L48.8918 48.5483C48.7444 48.4689 48.6708 48.3613 48.6708 48.1969V43.4812H49.6569C49.8383 43.4812 50.0197 43.5719 50.2124 43.7532L50.2407 43.7815V43.7759ZM44.9866 48.3726L45.0319 48.3443V47.6017H44.8053L44.7769 47.6528C44.7145 47.7718 44.6069 47.8965 44.4538 48.0212C44.2951 48.1515 44.0854 48.2592 43.8304 48.3556C43.5753 48.4463 43.2806 48.4973 42.9575 48.4973C42.5154 48.4973 42.1357 48.3839 41.8182 48.1572C41.5008 47.9305 41.2628 47.6244 41.0984 47.2446C40.934 46.8592 40.8547 46.4285 40.8547 45.9581C40.8547 45.4876 40.934 45.0512 41.0984 44.6658C41.2571 44.2804 41.5008 43.9743 41.8182 43.7475C42.13 43.5209 42.5154 43.4075 42.9575 43.4075C43.2919 43.4075 43.5923 43.4642 43.853 43.5775C44.1138 43.6909 44.3291 43.8156 44.4822 43.9516C44.6749 44.116 44.7429 44.2067 44.7712 44.252L44.7995 44.303H45.0206V43.5605L44.9753 43.5322C44.7939 43.4245 44.5049 43.3168 44.091 43.2035C43.683 43.0957 43.3032 43.0391 42.9575 43.0391C42.3113 43.0391 41.7503 43.1695 41.2854 43.4301C40.8207 43.6909 40.4636 44.048 40.2255 44.49C39.9875 44.9265 39.8685 45.4253 39.8685 45.9581C39.8685 46.4908 39.9875 46.984 40.2255 47.4204C40.4636 47.8625 40.8207 48.2139 41.2854 48.4746C41.7503 48.7297 42.3113 48.8657 42.9575 48.8657C43.2749 48.8657 43.6546 48.809 44.0797 48.6956C44.5162 48.5823 44.8109 48.4746 44.9809 48.3726H44.9866ZM39.4264 48.792L39.6361 48.1232H39.3981L39.3697 48.1515C39.177 48.3329 38.99 48.4236 38.8142 48.4236H36.4054V45.5613H37.6523C37.8281 45.5613 37.9527 45.6293 38.0434 45.771L38.0718 45.8163H38.2928V44.9208H38.0718L38.0434 44.9718C37.9641 45.1192 37.8337 45.1872 37.658 45.1872H36.411V43.4699H38.4855C38.6612 43.4699 38.8482 43.5605 39.041 43.7419L39.0693 43.7702H39.3074L39.0976 43.1015H35.2151V43.3225L35.2661 43.3508C35.4136 43.4301 35.4872 43.5265 35.4872 43.6455V48.2365C35.4872 48.3613 35.4136 48.4576 35.2661 48.5313L35.2151 48.5596V48.7807H39.4264V48.792ZM34.1893 48.792L34.4047 48.1232H34.1609L34.1326 48.1515C34.0703 48.2195 33.9796 48.2819 33.8775 48.3385C33.7812 48.3953 33.6848 48.4179 33.5884 48.4179H31.7521V43.7022C31.7521 43.5435 31.8201 43.4301 31.9731 43.3508L32.0241 43.3225V43.1015H30.5562V43.3225L30.6072 43.3508C30.7602 43.4301 30.8282 43.5379 30.8282 43.7022V48.1855C30.8282 48.3499 30.7602 48.4576 30.6072 48.5369L30.5562 48.5653V48.7863H34.1893V48.792ZM29.5303 48.792L29.7399 48.1232H29.4963L29.4679 48.1515C29.3999 48.2195 29.3149 48.2819 29.2129 48.3385C29.1165 48.3953 29.0201 48.4179 28.9181 48.4179H27.0817V43.7022C27.0817 43.5435 27.1554 43.4301 27.3027 43.3508L27.3538 43.3225V43.1015H25.8858V43.3225L25.9368 43.3508C26.0898 43.4301 26.1578 43.5379 26.1578 43.7022V48.1855C26.1578 48.3499 26.0898 48.4576 25.9368 48.5369L25.8858 48.5653V48.7863H29.5189L29.5303 48.792ZM24.6105 47.4147C24.8485 46.9783 24.9733 46.4851 24.9733 45.9581C24.9733 45.4309 24.8542 44.9265 24.6219 44.49C24.3838 44.048 24.0324 43.6909 23.5676 43.4301C23.1028 43.1695 22.5418 43.0391 21.8956 43.0391C21.2495 43.0391 20.6883 43.1695 20.2236 43.4301C19.7588 43.6909 19.4017 44.048 19.1693 44.49C18.9369 44.9265 18.8179 45.4196 18.8179 45.9581C18.8179 46.4965 18.9369 46.984 19.1693 47.4204C19.4017 47.8625 19.7588 48.2139 20.2236 48.4746C20.6883 48.7297 21.2495 48.8657 21.8956 48.8657C22.5418 48.8657 23.0858 48.7353 23.5506 48.4746C24.0154 48.2139 24.3725 47.8568 24.6105 47.4147ZM23.9814 45.9581C23.9814 46.4285 23.9021 46.8649 23.7376 47.2503C23.579 47.63 23.3352 47.9361 23.0235 48.1629C22.7118 48.3839 22.332 48.4973 21.8899 48.4973C21.4479 48.4973 21.0681 48.3839 20.7564 48.1629C20.4446 47.9418 20.2009 47.6357 20.0422 47.2503C19.8778 46.8649 19.7985 46.4285 19.7985 45.9581C19.7985 45.4876 19.8835 45.0455 20.0422 44.6601C20.2009 44.2804 20.4446 43.9743 20.7564 43.7475C21.0681 43.5209 21.4479 43.4075 21.8899 43.4075C22.332 43.4075 22.7118 43.5209 23.0235 43.7475C23.3352 43.9743 23.579 44.2804 23.7376 44.6601C23.9021 45.0455 23.9814 45.4819 23.9814 45.9581ZM17.9167 48.3726L17.9621 48.3443V47.6017H17.7354L17.707 47.6528C17.6447 47.7718 17.537 47.8965 17.384 48.0212C17.2252 48.1515 17.0212 48.2592 16.7605 48.3556C16.5054 48.4463 16.2107 48.4973 15.8876 48.4973C15.4455 48.4973 15.0601 48.3839 14.7483 48.1572C14.431 47.9305 14.1929 47.6244 14.0285 47.2446C13.8642 46.8592 13.7849 46.4285 13.7849 45.9581C13.7849 45.4876 13.8642 45.0512 14.0285 44.6658C14.1873 44.2804 14.4309 43.9743 14.7427 43.7475C15.0544 43.5209 15.4398 43.4075 15.882 43.4075C16.2164 43.4075 16.5167 43.4642 16.7775 43.5775C17.0382 43.6909 17.2536 43.8156 17.4066 43.9516C17.5994 44.116 17.6674 44.2067 17.6957 44.2577L17.724 44.3087H17.9451V43.5662L17.8997 43.5379C17.7184 43.4301 17.4293 43.3225 17.0155 43.2091C16.6075 43.1014 16.2277 43.0447 15.882 43.0447C15.2358 43.0447 14.6747 43.1751 14.2099 43.4358C13.7452 43.6965 13.3881 44.0536 13.15 44.4957C12.912 44.9322 12.793 45.4309 12.793 45.9637C12.793 46.4965 12.912 46.9896 13.15 47.426C13.3881 47.8681 13.7452 48.2195 14.2099 48.4803C14.6747 48.7353 15.2358 48.8713 15.882 48.8713C16.1994 48.8713 16.5791 48.8147 17.0042 48.7013C17.4406 48.5879 17.7354 48.4803 17.9054 48.3783L17.9167 48.3726Z"></path>
</svg>
