<svg xmlns="http://www.w3.org/2000/svg" fill="none" viewBox="0 0 81 64" height="64" width="81">
<path fill="white" d="M2.51758 47.4304V29.6019C2.51758 28.0644 1.75468 27.4541 0 27.2604V26.8438H9.81211C14.1548 26.8438 17.3414 28.7686 17.3414 32.1313C17.3414 34.2146 15.8801 36.427 12.3004 37.1958C16.9775 37.9 18.9317 40.2122 18.9317 43.4164C18.9317 47.583 15.8508 50.1827 9.2194 50.1827H0.00586862V49.7661C1.76055 49.5724 2.52345 48.9621 2.52345 47.4245M9.21353 36.9141C12.0011 36.9141 13.1278 35.2768 13.1278 32.4247C13.1278 29.0268 11.0034 27.4541 9.18418 27.4541H8.75578C7.16542 27.4541 6.40252 28.0937 6.40252 29.5374V36.9141H9.2194H9.21353ZM8.88489 49.5783H9.68301C12.6642 49.5783 14.724 47.3952 14.724 43.5161C14.724 39.6371 12.4705 37.5831 7.99288 37.5831H6.40252V47.4891C6.40252 48.9621 7.16542 49.5724 8.89076 49.5724"></path>
<path fill="white" d="M21.6191 47.4597V29.6019C21.6191 28.0644 20.8562 27.4541 19.1016 27.2604V26.8438H29.7118C34.4829 26.8438 37.4347 29.0855 37.4347 32.5186C37.4347 35.2768 34.8819 37.2662 31.3315 37.9352L36.8713 46.8201C38.0979 48.7743 39.1248 49.5783 40.9499 49.7367V50.1886C36.5075 50.8635 33.9547 50.1886 32.2294 47.2074L28.2212 40.2826C27.294 38.7098 26.5604 38.2932 25.9325 38.2932H25.5041V47.4656C25.5041 49.0032 26.3315 49.6135 28.6203 49.7719V50.1886H19.1016V49.7719C20.8562 49.5783 21.6191 48.968 21.6191 47.4656M25.9618 37.6476C31.3667 37.6476 33.2211 36.1746 33.2211 32.7416C33.2211 29.3085 31.3315 27.4482 28.9078 27.4482H27.8808C26.3198 27.4482 25.4923 28.0233 25.4923 29.5961V37.6418H25.956L25.9618 37.6476Z"></path>
<path fill="white" d="M45.1905 47.5595L50.9299 29.4728C51.3583 28.0644 50.8654 27.4541 49.2398 27.2604L49.3748 26.8438H57.9956L57.8606 27.2604C56.2057 27.4189 55.1728 27.9353 54.7444 29.2498L48.9053 47.7532C48.5121 49.0325 49.1694 49.6135 50.7656 49.7719L50.6306 50.1886H41.9746L42.1096 49.7719C43.8291 49.5783 44.7621 48.968 45.1905 47.5595Z"></path>
<path fill="white" d="M47.2858 54.4785C47.6203 53.4515 48.6121 52.6534 49.6743 52.6534C51.5991 52.6534 50.9008 55.1533 52.5263 55.1533C53.5885 55.1533 54.416 53.9034 56.3702 47.6828L62.0744 29.5667C62.538 28.0937 62.0392 27.4834 60.1143 27.2604L60.2493 26.8438H69.2339L69.099 27.2604C67.3443 27.4189 66.3173 28.0644 65.883 29.5667L60.4781 46.6264C58.4887 53.0055 52.6848 56.8845 49.4689 56.8845C47.7142 56.8845 46.8809 55.7637 47.2799 54.4785"></path>
<path fill="white" d="M57.9881 18.1901C57.9881 20.5023 56.0456 22.3802 53.6571 22.3802C51.2686 22.3802 49.3262 20.5023 49.3262 18.1901C49.3262 15.8779 51.2628 14 53.6571 14C56.0515 14 57.9881 15.8779 57.9881 18.1901Z"></path>
<path fill="white" d="M69.0525 18.1901C69.0525 20.5023 67.11 22.3802 64.7216 22.3802C62.3331 22.3802 60.3906 20.5023 60.3906 18.1901C60.3906 15.8779 62.3272 14 64.7216 14C67.1159 14 69.0525 15.8779 69.0525 18.1901Z"></path>
<path fill="white" d="M80.117 18.1901C80.117 20.5023 78.1745 22.3802 75.786 22.3802C73.3976 22.3802 71.4551 20.5023 71.4551 18.1901C71.4551 15.8779 73.3917 14 75.786 14C78.1804 14 80.117 15.8779 80.117 18.1901Z"></path>
</svg>
