<svg xmlns="http://www.w3.org/2000/svg" fill="none" viewBox="0 0 65 65" height="65" width="65">
<path fill="white" d="M31.591 61.6386C31.591 62.553 31.115 63.4737 30.0942 63.4737C29.186 63.4737 28.685 62.8474 28.685 61.9706C28.685 60.2044 29.8875 59.766 31.591 59.766V61.6386ZM30.3948 56.1147C29.4053 56.1147 27.7957 56.4467 27.7957 57.5803C27.7957 58.1251 28.1088 58.5698 28.6725 58.5698C29.0796 58.5698 29.4679 58.2504 29.4679 57.837C29.4679 57.5928 29.3927 57.43 29.2111 57.192C29.3301 56.622 29.9 56.5469 30.4073 56.5469C31.0962 56.5469 31.591 57.1606 31.591 57.9122V59.3276C29.543 59.3276 27.2383 59.7034 27.2383 62.0081C27.2383 63.3797 28.3593 63.9998 29.6933 63.9998C30.495 63.9998 31.2027 63.6866 31.6223 63.0102V62.91C31.6223 63.862 32.8185 63.8808 32.8185 63.8808V63.7743V58.0312C32.8185 56.7724 31.9104 56.1147 30.3948 56.1147Z"></path>
<path fill="white" d="M6.10841 58.019C6.10841 56.7601 5.19402 56.1025 3.68466 56.1025C2.69512 56.1025 1.07929 56.4282 1.07929 57.5681C1.07929 58.1067 1.39243 58.5576 1.96236 58.5576C2.36319 58.5576 2.75775 58.2382 2.75775 57.8186C2.75775 57.5806 2.68259 57.4178 2.50723 57.1735C2.62623 56.6036 3.19615 56.5347 3.70345 56.5347C4.39237 56.5347 4.81825 57.1923 4.86209 57.6182C4.88714 57.8562 4.88088 58.639 4.88088 58.7455C4.88088 59.5096 3.87881 59.1714 3.74729 59.6286C3.64708 59.9855 4.65541 59.5096 4.8433 59.8415C4.89966 59.9354 4.88088 60.2486 4.88088 60.3864V61.6264C4.88088 62.5408 4.37984 63.5116 3.36525 63.4865C1.74942 63.4489 1.70558 61.4886 2.38197 60.5242C2.65128 60.1421 2.97695 60.0482 3.04584 59.9041C3.20242 59.5346 1.60537 59.7288 1.00413 60.4928C0.703514 60.8749 0.515625 61.3321 0.515625 61.9584C0.515625 63.3299 1.65548 63.9938 2.98948 63.9938C3.78487 63.9938 4.5051 63.6556 4.92472 63.0105C5.00613 63.856 6.11467 63.8686 6.11467 63.8686V63.7683V60.4553C6.11467 59.6035 5.46959 59.6035 5.46959 59.6035H5.48838L6.57186 59.4469L6.89127 58.9146L5.99567 59.0398C6.16477 58.5764 6.11467 58.019 6.11467 58.019"></path>
<path fill="white" d="M22.8366 56.1147C21.7155 56.1147 20.8449 56.835 20.5067 57.4926C20.1498 56.3527 19.3231 56.1147 18.3961 56.1147C17.5256 56.1147 16.7052 56.5845 16.0914 57.5051H16.0663V56.1147C15.4714 56.2964 15.1582 56.2651 14.438 56.2651H14.0372L13.8242 56.7911H14.1687C14.8263 56.7911 14.9328 56.9414 14.9328 57.6429V62.4841V62.9163C14.9328 63.8682 16.154 63.887 16.154 63.887V59.1335C16.154 57.8746 16.8242 56.741 18.1769 56.741C19.1915 56.741 19.4922 57.5803 19.4922 58.8078V62.4967V62.9288C19.4922 63.8808 20.7197 63.8995 20.7197 63.8995V63.7806V58.8141C20.7197 57.4675 21.4086 56.7473 22.6174 56.7473C23.7509 56.7473 24.0516 57.5865 24.0516 58.8141V62.5029V62.9476C24.0516 63.8995 25.2728 63.9183 25.2728 63.9183V63.7806V58.3944C25.2728 57.1982 24.9534 56.1335 22.8366 56.1335"></path>
<path fill="white" d="M53.6363 61.5887C53.6363 62.5031 53.1603 63.4238 52.1458 63.4238C51.2314 63.4238 50.7366 62.7975 50.7366 61.9207C50.7366 60.1545 51.9328 59.7161 53.6363 59.7161V61.5887ZM52.4464 56.0649C51.4631 56.0649 49.841 56.3968 49.841 57.5304C49.841 58.0753 50.1542 58.5199 50.7241 58.5199C51.1249 58.5199 51.5132 58.2005 51.5132 57.7872C51.5132 57.5429 51.438 57.3801 51.2564 57.1421C51.3754 56.5722 51.9453 56.497 52.4526 56.497C53.1416 56.497 53.6301 57.1108 53.6301 57.8623V59.2777C51.5821 59.2777 49.2773 59.6535 49.2773 61.9583C49.2773 63.3298 50.3984 63.9499 51.7324 63.9499C52.5341 63.9499 53.2418 63.6367 53.6614 62.9603V62.4342V62.8539C53.6614 63.8058 54.8576 63.8246 54.8576 63.8246V63.7181V57.975C54.8576 56.7162 53.9432 56.0586 52.4338 56.0586"></path>
<path fill="white" d="M61.1026 56.1147C60.2321 56.1147 59.4116 56.5845 58.7979 57.5051H58.7603V56.1147C58.1653 56.2964 57.6455 56.3527 56.9253 56.3527H56.5244L56.418 56.7911H56.7562C57.42 56.7911 57.6267 56.9414 57.6267 57.6429V62.7973V62.9225C57.6267 63.8745 58.848 63.8933 58.848 63.8933V63.7555V59.1209C58.848 57.8621 59.5181 56.7285 60.8646 56.7285C62.0045 56.7285 62.3051 57.5677 62.3051 58.7953V62.8035V62.9288C62.3051 63.8808 63.5326 63.8995 63.5326 63.8995V63.7618V58.3757C63.5326 57.1794 63.2195 56.1147 61.0964 56.1147"></path>
<path fill="white" d="M39.1456 56.165C38.2751 56.165 37.4546 56.6348 36.8408 57.5554H36.8095V56.165C36.2146 56.3467 35.7949 56.403 35.0747 56.403H34.6739L34.4609 56.8414H34.8054C35.463 56.8414 35.6759 56.9917 35.6759 57.6932V62.8476V62.9728C35.6759 63.9248 36.8972 63.9436 36.8972 63.9436V63.8058V59.1712C36.8972 57.9124 37.5736 56.7788 38.9139 56.7788C40.0537 56.7788 40.3543 57.618 40.3543 58.8456V62.8538V62.9791C40.3543 63.9311 41.5756 63.9498 41.5756 63.9498V63.8121V58.426C41.5756 57.2297 41.2562 56.165 39.1393 56.165"></path>
<path fill="white" d="M10.5784 54.2363L9.35712 55.0255V56.2655H7.61602L7.42188 56.7916H9.36338V62.9105C9.36338 63.8624 10.5909 63.8812 10.5909 63.8812V56.7916H12.7391L12.952 56.2655H10.5909V54.2363H10.5784Z"></path>
<path fill="white" d="M46.0261 56.278V54.23L44.8048 55.0254V56.278H43.07L42.8633 56.804H44.8048V57.1861H44.811V62.9229C44.811 63.8749 46.0323 63.8937 46.0323 63.8937V56.804H48.1742L48.3934 56.278H46.0261Z"></path>
<path fill="white" d="M51.5504 48.75H14.2422V49.37H51.5504V48.75Z"></path>
<path fill="white" d="M1.88172 54.2485L1.65625 54.831H3.82322H5.1948H5.50168L5.73967 54.2485H1.88172Z"></path>
<path fill="white" d="M21.708 18.7383C21.708 20.9866 23.0232 22.8655 25.3906 22.8655C27.0753 22.8655 28.71 21.5566 28.71 19.8092C28.71 18.8134 28.3906 18.1182 27.639 17.1224C28.14 14.7613 30.5137 14.4356 32.6368 14.4356C35.5052 14.4356 37.2714 17.2038 37.478 18.9512C37.5783 19.9721 37.572 23.21 37.572 23.6484C37.572 26.8675 33.3884 25.4333 32.8372 27.3435C32.618 28.0888 33.595 27.951 34.7161 27.807C35.8058 27.688 37.0209 27.5502 37.4029 28.2266C37.6158 28.6149 37.572 29.9176 37.572 30.4875V35.6669C37.572 39.4685 35.4614 43.5331 31.2214 43.4204C24.495 43.245 24.3009 35.0469 27.1129 31.0574C28.234 29.4792 29.6244 29.0721 29.8749 28.4708C30.5199 26.9364 23.8687 27.7255 21.3698 30.9259C20.1298 32.5167 19.3281 34.4269 19.3281 37.0197C19.3281 42.7628 24.0879 45.531 29.6431 45.531C32.95 45.531 35.9624 44.1406 37.7286 41.4413C38.0918 44.9736 42.6825 45.03 42.6825 45.03V44.5916L42.6951 44.6229V30.7756C42.6951 27.2245 40.0208 27.237 40.0208 27.237L40.1022 27.212L44.6178 26.5794L45.9518 24.3498L42.2191 24.8822C42.9393 22.9469 42.6951 20.6234 42.6951 20.6234C42.6951 15.3813 38.8872 12.6382 32.5804 12.6382C28.4532 12.6382 21.7143 14.0098 21.7143 18.7508"></path>
<path fill="white" d="M41.1547 5.08496H24.1133V7.5275H41.1547V5.08496Z"></path>
<path fill="white" d="M41.1547 5.08496H24.1133V7.5275H41.1547V5.08496Z"></path>
</svg>
