<svg xmlns="http://www.w3.org/2000/svg" fill="none" viewBox="0 0 139 65" height="65" width="139">
<path fill="white" d="M2.56279 29.5549C2.32287 29.3029 2.20291 29.007 2.20291 28.6892C2.20291 28.1303 2.51917 27.681 3.14078 27.3304C3.7733 26.9797 4.63484 26.8044 5.72538 26.8044C6.57601 26.8044 7.31759 26.9359 7.96101 27.2098C8.60444 27.4838 9.17152 27.8783 9.67317 28.4152L9.84766 28.4372L11.08 27.4728C10.2948 26.7277 9.47688 26.1797 8.62625 25.851C7.77562 25.5222 6.80503 25.3578 5.71448 25.3578C4.80932 25.3578 4.03503 25.4565 3.3807 25.6537C2.72637 25.851 2.20291 26.114 1.7776 26.4427C1.36319 26.7715 1.05783 27.155 0.872441 27.5714C0.687047 27.9988 0.588898 28.4372 0.588898 28.8974C0.588898 29.5111 0.741574 30.0371 1.03602 30.4535C1.33047 30.8699 1.72307 31.2206 2.20291 31.4946C2.67185 31.7685 3.21712 32.0096 3.81692 32.1849C4.41673 32.3712 5.01653 32.5356 5.61633 32.6781C6.12889 32.8096 6.61964 32.952 7.09948 33.0835C7.56841 33.226 7.99373 33.3904 8.35361 33.5767C8.71349 33.763 8.99703 33.9931 9.21514 34.2451C9.43325 34.4972 9.54231 34.815 9.54231 35.1876C9.54231 35.4834 9.44416 35.7574 9.25876 36.0204C9.07337 36.2834 8.80073 36.5135 8.46266 36.7108C8.12459 36.908 7.71019 37.0724 7.21944 37.182C6.7396 37.3025 6.21613 37.3573 5.63814 37.3573C5.13649 37.3573 4.68936 37.3135 4.28586 37.2258C3.88236 37.1381 3.51157 37.0176 3.1735 36.8642C2.83543 36.7108 2.53008 36.5245 2.24653 36.2944C1.96299 36.0752 1.69035 35.8122 1.42862 35.5382L0 36.6121C0.817912 37.3902 1.66854 37.9491 2.54098 38.2888C3.41342 38.6285 4.42763 38.7929 5.5618 38.7929C6.36881 38.7929 7.11038 38.7162 7.78652 38.5518C8.46266 38.3874 9.06247 38.1573 9.56412 37.8505C10.0658 37.5436 10.4584 37.1601 10.7528 36.6998C11.0364 36.2505 11.1781 35.7136 11.1781 35.1108C11.1781 34.5081 11.0255 33.9712 10.731 33.5438C10.4366 33.1164 10.044 32.7657 9.55321 32.4808C9.07337 32.1959 8.5281 31.9548 7.9283 31.7576C7.32849 31.5603 6.72869 31.374 6.12889 31.2206C5.67086 31.0891 5.22373 30.9466 4.7548 30.7932C4.29677 30.6398 3.87145 30.4645 3.48976 30.2563C3.10807 30.0481 2.80271 29.8179 2.56279 29.5659M13.9045 38.508H24.4283V36.8751H15.5294V32.4479H23.9485V30.8371H15.5294V26.9139H24.4283V25.325H13.9045V38.497V38.508ZM27.1656 38.508H37.6894V36.8751H28.7905V25.3359H27.1656V38.508ZM40.4267 38.508H50.9396V36.8751H42.0407V32.4479H50.4597V30.8371H42.0407V26.9139H50.9396V25.325H40.4267V38.497V38.508ZM85.6736 26.9359H90.472V25.3469H79.163V26.9359H84.0705V38.5189H85.6736V26.9359ZM65.9346 42.5187C60.3728 42.5187 55.8361 37.971 55.8361 32.3712C55.8361 26.7715 60.3619 22.2237 65.9346 22.2237C71.5073 22.2237 76.0331 26.7715 76.0331 32.3712C76.0331 37.971 71.5073 42.5187 65.9346 42.5187ZM93.7109 46.6062H91.8788C90.352 49.2691 87.0695 51.2197 81.9439 49.3678C79.3811 48.4472 77.1128 47.2199 74.9098 46.0254C73.0341 45.0173 71.311 44.0968 69.6425 43.4721C74.2664 41.916 77.6144 37.5217 77.6144 32.3603C77.6144 25.8948 72.3798 20.6348 65.9455 20.6348C59.5113 20.6348 54.2766 25.8948 54.2766 32.3603C54.2766 37.5546 57.6573 41.9599 62.314 43.505C60.002 44.6118 58.9878 46.5076 58.9333 46.6281L60.3837 47.3733C60.3837 47.3733 61.9759 44.3488 65.9128 44.3488C68.3665 44.3488 71.0384 45.7953 74.1465 47.461C76.2948 48.6226 78.7377 49.9376 81.4095 50.9019C82.9581 51.4608 84.4194 51.7348 85.7826 51.7348C87.1458 51.7348 88.4436 51.4499 89.6104 50.88C92.0097 49.7184 93.2093 47.7349 93.7218 46.5843M93.2202 38.5189H94.8669V25.3469H93.2202V38.5189ZM109.109 31.9329C109.109 32.6233 108.979 33.2698 108.717 33.8835C108.455 34.4862 108.095 35.0232 107.637 35.4834C107.179 35.9437 106.656 36.2944 106.045 36.5574C105.434 36.8204 104.791 36.9409 104.104 36.9409C103.417 36.9409 102.752 36.8094 102.141 36.5574C101.53 36.3053 101.007 35.9437 100.56 35.4834C100.112 35.0341 99.7525 34.4972 99.4908 33.8835C99.2291 33.2698 99.0982 32.6233 99.0982 31.9329C99.0982 31.2425 99.2291 30.585 99.4908 29.9823C99.7525 29.3686 100.112 28.8426 100.56 28.3824C101.007 27.9221 101.53 27.5714 102.141 27.3084C102.752 27.0454 103.406 26.9139 104.104 26.9139C104.802 26.9139 105.434 27.0454 106.045 27.3084C106.656 27.5714 107.179 27.9331 107.637 28.3824C108.084 28.8426 108.444 29.3686 108.717 29.9823C108.979 30.585 109.109 31.2425 109.109 31.9329ZM110.113 34.3547C110.375 33.5657 110.505 32.7548 110.505 31.9329C110.505 31.111 110.375 30.3001 110.113 29.522C109.851 28.733 109.448 28.0317 108.924 27.418C108.39 26.8044 107.724 26.3003 106.928 25.9167C106.132 25.5332 105.194 25.3469 104.137 25.3469C103.231 25.3469 102.381 25.5222 101.596 25.8619C100.81 26.2016 100.112 26.6729 99.5235 27.2756C98.9346 27.8673 98.4657 28.5687 98.1276 29.3686C97.7787 30.1686 97.6151 31.0234 97.6151 31.9329C97.6151 32.8424 97.7896 33.6972 98.1276 34.4862C98.4657 35.2752 98.9346 35.9766 99.5235 36.5793C100.112 37.182 100.81 37.6532 101.596 38.0039C102.381 38.3545 103.231 38.5189 104.137 38.5189C105.205 38.5189 106.132 38.3326 106.928 37.96C107.724 37.5874 108.39 37.0943 108.924 36.4697C109.458 35.856 109.851 35.1437 110.113 34.3547ZM114.846 29.0947L124.563 38.7819V25.3469H123.003V34.7273L113.243 25.1058V38.5189H114.846V29.0947ZM136.591 28.4262L137.824 27.4619C137.038 26.7167 136.221 26.1688 135.37 25.84C134.519 25.5113 133.549 25.3469 132.458 25.3469C131.553 25.3469 130.779 25.4455 130.124 25.6428C129.47 25.84 128.936 26.103 128.521 26.4318C128.107 26.7605 127.801 27.1441 127.616 27.5605C127.431 27.9879 127.333 28.4262 127.333 28.8865C127.333 29.5001 127.485 30.0152 127.78 30.4426C128.085 30.859 128.467 31.2096 128.947 31.4836C129.416 31.7576 129.961 31.9987 130.561 32.174C131.16 32.3603 131.76 32.5247 132.36 32.6671C132.873 32.7986 133.363 32.9301 133.843 33.0726C134.312 33.215 134.726 33.3794 135.097 33.5657C135.457 33.752 135.741 33.9821 135.959 34.2342C136.177 34.4862 136.286 34.804 136.286 35.1656C136.286 35.4615 136.188 35.7355 136.002 35.9985C135.806 36.2615 135.544 36.4916 135.206 36.6889C134.868 36.8861 134.454 37.0395 133.963 37.1601C133.483 37.2806 132.96 37.3354 132.382 37.3354C131.88 37.3354 131.433 37.2916 131.03 37.2039C130.626 37.1162 130.255 36.9957 129.917 36.8423C129.579 36.6889 129.274 36.4916 128.99 36.2615C128.707 36.0314 128.434 35.7793 128.172 35.5053L126.744 36.5902C127.562 37.3683 128.412 37.9272 129.285 38.2669C130.157 38.6066 131.171 38.771 132.305 38.771C133.112 38.771 133.854 38.6942 134.53 38.5299C135.206 38.3655 135.806 38.1354 136.308 37.8285C136.809 37.5217 137.202 37.1381 137.496 36.6779C137.78 36.2176 137.922 35.6916 137.922 35.0889C137.922 34.4862 137.769 33.9493 137.475 33.5219C137.18 33.0945 136.788 32.7438 136.297 32.4479C135.817 32.163 135.272 31.9219 134.672 31.7247C134.072 31.5274 133.472 31.3521 132.873 31.1877C132.415 31.0562 131.967 30.9138 131.498 30.7604C131.04 30.6069 130.615 30.4316 130.233 30.2234C129.852 30.0152 129.546 29.7851 129.306 29.533C129.067 29.281 128.947 28.9851 128.947 28.6673C128.947 28.1084 129.263 27.6591 129.884 27.2975C130.517 26.9468 131.378 26.7715 132.469 26.7715C133.32 26.7715 134.061 26.903 134.705 27.1769C135.348 27.4509 135.915 27.8454 136.417 28.3824L136.591 28.4043V28.4262Z"></path>
</svg>
