<svg xmlns="http://www.w3.org/2000/svg" fill="none" viewBox="0 0 86 65" height="65" width="86">
<path fill="white" d="M12.9089 42.1871C11.4212 42.1871 10.1624 42.004 9.12677 41.6321C8.09112 41.2601 7.18134 40.7051 6.39173 39.9613C5.91682 39.5093 5.52773 39.0286 5.21875 38.5137C4.90977 38.0044 4.66373 37.4895 4.48636 36.963C4.30898 36.4424 4.1831 35.916 4.10871 35.3838C4.03433 34.8517 4 34.3424 4 33.8446C4 33.5013 4.03433 33.1008 4.09727 32.6373C4.16593 32.1739 4.28037 31.6932 4.4463 31.1897C4.61224 30.6862 4.84111 30.1769 5.1272 29.662C5.41902 29.147 5.77949 28.6607 6.21435 28.2086C6.50617 27.9054 6.83803 27.6193 7.2214 27.3446C7.60476 27.07 8.03962 26.8354 8.52598 26.6408C9.01233 26.4463 9.56163 26.2918 10.1739 26.1774C10.7861 26.0629 11.4784 26 12.2394 26C12.6343 26 13.0863 26.0172 13.6012 26.0515C14.1162 26.0858 14.614 26.1488 15.1004 26.246C15.4837 26.3147 15.8328 26.3776 16.1589 26.4291C16.4851 26.4864 16.7998 26.5264 17.1202 26.555C17.2232 26.5665 17.2918 26.5951 17.3262 26.6294C17.3605 26.6637 17.3777 26.7152 17.3777 26.7839C17.3777 26.864 17.3662 26.9899 17.3491 27.1444C17.3319 27.3046 17.3033 27.5678 17.2804 27.9397C17.2689 28.1056 17.2575 28.2945 17.2518 28.5062C17.2461 28.7179 17.2403 28.9296 17.2403 29.1356C17.2403 29.3416 17.2403 29.5304 17.2289 29.6906C17.2232 29.8565 17.2175 29.9767 17.2175 30.0625C17.206 30.3486 17.1431 30.4974 17.0401 30.4974C16.9371 30.4974 16.8799 30.3543 16.8799 30.0625C16.8799 29.662 16.8055 29.2729 16.6624 28.8838C16.5194 28.5004 16.3134 28.1915 16.0502 27.9569C15.7069 27.6422 15.1805 27.3675 14.471 27.1329C13.7615 26.8983 12.9718 26.7839 12.0964 26.7839C11.4384 26.7839 10.8662 26.8297 10.3799 26.9155C9.8935 27.007 9.47008 27.1215 9.10388 27.2645C8.74341 27.4076 8.43443 27.5735 8.18839 27.7509C7.93663 27.9283 7.72492 28.1114 7.55326 28.2887C6.83231 29.0154 6.35168 29.8336 6.1228 30.732C5.89393 31.636 5.77377 32.6144 5.77377 33.673C5.77377 34.6629 5.95115 35.6127 6.29446 36.5225C6.64349 37.4322 7.12985 38.2333 7.75925 38.9256C8.38293 39.618 9.13821 40.1787 10.0137 40.5964C10.8891 41.0141 11.8504 41.2258 12.9089 41.2258C13.6585 41.2258 14.3222 41.1629 14.8944 41.0313C15.4666 40.8997 15.9529 40.6193 16.3477 40.1959C16.5594 39.9613 16.7254 39.6638 16.8513 39.2976C16.9771 38.9314 17.0515 38.6567 17.0801 38.4622C17.1202 38.2562 17.1831 38.1532 17.2804 38.1532C17.3319 38.1532 17.3662 38.1818 17.3891 38.2447C17.4063 38.3077 17.4177 38.3763 17.4177 38.4622C17.4177 38.5022 17.4063 38.6338 17.3777 38.8455C17.3491 39.0572 17.3147 39.3033 17.2804 39.5779C17.2403 39.8526 17.1946 40.1329 17.1431 40.4133C17.0916 40.6937 17.0401 40.9283 16.9829 41.1057C16.9142 41.3002 16.8627 41.4261 16.8169 41.489C16.7711 41.552 16.6567 41.6206 16.4679 41.7065C16.2676 41.7866 16.033 41.8609 15.7584 41.9239C15.4837 41.9868 15.1862 42.0326 14.8715 42.0669C14.5568 42.1013 14.2306 42.1299 13.8931 42.147C13.5555 42.1699 13.2293 42.1756 12.9146 42.1756L12.9089 42.1871Z"></path>
<path fill="white" d="M21.8351 32.2756V35.9491C21.8351 37.4654 21.8638 38.5868 21.9152 39.3135C21.9667 40.0459 22.0869 40.4979 22.27 40.6753C22.3501 40.7554 22.4474 40.8298 22.5561 40.8927C22.6648 40.9557 22.8136 41.0015 22.991 41.0358C23.1683 41.0701 23.3915 41.0987 23.6604 41.1159C23.9293 41.1388 24.2555 41.1445 24.6388 41.1445C25.1653 41.1445 25.6344 41.1159 26.0521 41.0644C26.4698 41.0072 26.7903 40.8298 27.0306 40.5265C27.1622 40.3606 27.2709 40.1603 27.3682 39.9258C27.4597 39.6912 27.5169 39.4794 27.5455 39.2849C27.5741 39.1075 27.6314 39.016 27.7229 39.016C27.803 39.016 27.8431 39.119 27.8431 39.325C27.8431 39.3822 27.8431 39.4909 27.8259 39.6568C27.8145 39.8228 27.7916 40.0059 27.7572 40.2118C27.7229 40.4178 27.6943 40.6295 27.66 40.8412C27.6256 41.053 27.5913 41.2361 27.5513 41.3905C27.5112 41.5164 27.4769 41.608 27.4425 41.6824C27.4082 41.751 27.3567 41.8082 27.2766 41.8483C27.1965 41.8883 27.0821 41.917 26.9276 41.9284C26.7788 41.9398 26.5671 41.9513 26.3096 41.9513C25.6001 41.9513 24.9764 41.9456 24.45 41.9284C23.9236 41.917 23.4487 41.8998 23.0253 41.8883C22.6019 41.8597 22.2357 41.8426 21.9152 41.8368C21.6005 41.8311 21.2973 41.8254 21.0055 41.8254C20.9654 41.8254 20.8682 41.8254 20.7194 41.8368C20.5649 41.8426 20.3932 41.8483 20.1987 41.8483C19.9984 41.8597 19.7982 41.8712 19.5979 41.8769C19.3919 41.8826 19.2203 41.8883 19.0772 41.8883C18.8655 41.8883 18.7625 41.8311 18.7625 41.7224C18.7625 41.6423 18.814 41.5965 18.9227 41.5965C19.0143 41.5965 19.1115 41.5908 19.2203 41.5736C19.3233 41.5622 19.4262 41.5393 19.5178 41.5107C19.7181 41.4706 19.8497 41.3448 19.924 41.1388C19.9984 40.9328 20.0557 40.6753 20.09 40.3778C20.1415 39.9372 20.1701 39.3307 20.1815 38.5525C20.1873 37.7743 20.193 36.8932 20.193 35.8976V29.0771C20.193 28.7682 20.193 28.5221 20.1815 28.3333C20.1758 28.1502 20.1644 27.9728 20.1529 27.8069C20.1243 27.4521 20.0614 27.1832 19.9584 27.0001C19.8497 26.8227 19.6322 26.6969 19.3061 26.6282C19.226 26.5996 19.1173 26.5824 18.9799 26.5767C18.8426 26.571 18.7282 26.5653 18.6309 26.5653C18.5279 26.5653 18.4707 26.5252 18.4707 26.4394C18.4707 26.3307 18.5737 26.2734 18.7854 26.2734C19.0086 26.2734 19.2489 26.2734 19.4949 26.2849C19.7467 26.2906 19.9813 26.2963 20.193 26.3078C20.4104 26.3135 20.5935 26.3192 20.748 26.3307C20.8968 26.3364 20.9883 26.3421 21.0169 26.3421C21.0455 26.3421 21.1428 26.3421 21.3145 26.3307C21.4861 26.3249 21.6807 26.3192 21.9038 26.3078C22.127 26.302 22.3558 26.2963 22.5847 26.2849C22.8136 26.2792 23.0024 26.2734 23.1454 26.2734C23.3572 26.2734 23.4601 26.3307 23.4601 26.4394C23.4601 26.5195 23.4087 26.5653 23.2999 26.5653C23.2313 26.5653 23.1397 26.5653 23.0138 26.5767C22.888 26.5824 22.7678 26.5996 22.6476 26.6282C22.3558 26.6854 22.1613 26.8056 22.064 26.9887C21.9667 27.1718 21.9038 27.4464 21.8752 27.8012C21.8638 27.9671 21.8523 28.1445 21.8466 28.3276C21.8466 28.5107 21.8351 28.7624 21.8351 29.0714V32.2585V32.2756Z"></path>
<path fill="white" d="M30.233 39.6258L34.7189 26.8089C34.8391 26.4656 34.9249 26.2424 34.9764 26.1509C35.0279 26.0536 35.0851 26.0078 35.1538 26.0078C35.2224 26.0078 35.2796 26.0536 35.3311 26.1394C35.3826 26.231 35.4685 26.4312 35.5886 26.7459C35.6401 26.8833 35.766 27.2094 35.9548 27.7244C36.1494 28.2393 36.3782 28.8745 36.6472 29.624C36.9161 30.3736 37.2136 31.1975 37.5455 32.0901C37.8774 32.9827 38.1978 33.8696 38.5239 34.7451C38.8443 35.6205 39.1533 36.4502 39.4509 37.2341C39.7484 38.018 39.9944 38.6702 40.1947 39.1967C40.3664 39.6487 40.5323 40.0206 40.6982 40.3124C40.8642 40.6042 41.0129 40.8274 41.1502 40.9933C41.2876 41.1592 41.4192 41.2737 41.5451 41.3423C41.6709 41.411 41.7854 41.4568 41.8884 41.4854C42.0314 41.5426 42.1745 41.5769 42.3118 41.5884C42.4491 41.5998 42.575 41.6113 42.678 41.6113C42.8096 41.6113 42.8782 41.6513 42.8782 41.7372C42.8782 41.8058 42.8382 41.8516 42.7581 41.8688C42.678 41.8916 42.5864 41.8974 42.4834 41.8974H41.3276C41.0415 41.8974 40.7383 41.8974 40.4007 41.8859C40.0631 41.8802 39.7255 41.8688 39.3822 41.8573C39.1991 41.8459 39.0503 41.8344 38.9473 41.8287C38.8386 41.823 38.7871 41.7829 38.7871 41.7143C38.7871 41.6456 38.8329 41.5998 38.9245 41.5712C38.9931 41.5426 39.0446 41.4854 39.0847 41.3938C39.1247 41.3023 39.1133 41.1764 39.0446 41.0105L37.2079 35.9352C37.1678 35.8551 37.1106 35.8093 37.0305 35.8093H32.7849C32.6934 35.8093 32.6247 35.8665 32.5847 35.9753L31.4002 39.6258C31.2171 40.1636 31.1256 40.6214 31.1256 41.0105C31.1256 41.2165 31.2057 41.371 31.3716 41.4625C31.5376 41.5598 31.7035 41.6055 31.8751 41.6055H32.0754C32.207 41.6055 32.2757 41.6456 32.2757 41.7314C32.2757 41.8401 32.1784 41.8974 31.9781 41.8974C31.858 41.8974 31.7207 41.8974 31.5604 41.8859C31.4002 41.8802 31.2515 41.8745 31.1027 41.863C30.9596 41.8573 30.8223 41.8516 30.6964 41.8401C30.5706 41.8344 30.479 41.8287 30.4275 41.8287C30.376 41.8287 30.273 41.8287 30.1185 41.8401C29.964 41.8459 29.7867 41.8516 29.575 41.863C29.3633 41.8688 29.1401 41.8745 28.9055 41.8859C28.6709 41.8916 28.4306 41.8974 28.196 41.8974C27.9442 41.8974 27.8184 41.8401 27.8184 41.7314C27.8184 41.6513 27.8756 41.6055 27.9957 41.6055C28.0644 41.6055 28.1559 41.6055 28.2704 41.5941C28.3905 41.5884 28.4878 41.5769 28.5679 41.5655C29.0314 41.4968 29.3747 41.2851 29.6036 40.9361C29.8324 40.5871 30.0442 40.1465 30.2273 39.6258H30.233ZM32.9966 35.0655H36.7673C36.8474 35.0655 36.8703 35.0197 36.8474 34.9224L34.9707 29.3494C34.8619 29.0461 34.7647 29.0461 34.6731 29.3494L32.9337 34.9224C32.8936 35.0197 32.9108 35.0655 32.9909 35.0655H32.9966Z"></path>
<path fill="white" d="M45.7065 35.9132V29.0928C45.7065 28.7838 45.7065 28.5377 45.6951 28.3489C45.6893 28.1658 45.6779 27.9884 45.6665 27.8225C45.6379 27.4678 45.5749 27.1988 45.4662 27.0157C45.3575 26.8384 45.14 26.7125 44.8139 26.6438C44.7338 26.6152 44.6251 26.598 44.4878 26.5923C44.3504 26.5866 44.236 26.5809 44.1387 26.5809C44.0357 26.5809 43.9785 26.5408 43.9785 26.455C43.9785 26.3463 44.0872 26.2891 44.2932 26.2891C44.5164 26.2891 44.7567 26.2891 45.0027 26.3005C45.2545 26.3062 45.4891 26.312 45.7008 26.3234C45.9182 26.3291 46.1013 26.3348 46.2558 26.3463C46.4046 26.352 46.4961 26.3577 46.5247 26.3577C46.5762 26.3577 46.7021 26.3577 46.8909 26.3463C47.0798 26.3406 47.3029 26.3348 47.5432 26.3234C47.7893 26.3177 48.0296 26.312 48.2642 26.3005C48.5045 26.2948 48.699 26.2891 48.8592 26.2891C49.4886 26.2891 50.1181 26.3406 50.7475 26.4436C51.3711 26.5465 51.949 26.7983 52.4755 27.1988C52.5956 27.2961 52.7329 27.4277 52.8931 27.5994C53.0534 27.771 53.2021 27.977 53.3394 28.2059C53.4768 28.4405 53.5969 28.7094 53.6942 29.0127C53.7915 29.3159 53.843 29.6478 53.843 30.0025C53.843 30.775 53.6656 31.5474 53.3108 32.3256C52.9561 33.1038 52.3381 33.9163 51.4512 34.7688C52.2695 35.856 53.0133 36.8459 53.6828 37.7385C54.3522 38.6311 54.9816 39.4035 55.5595 40.0501C56.0974 40.6394 56.5723 41.0285 56.9843 41.2059C57.3962 41.3833 57.7224 41.4977 57.9741 41.5378C58.1572 41.5664 58.3174 41.5835 58.449 41.5893C58.5807 41.595 58.6779 41.6007 58.7466 41.6007C58.8667 41.6007 58.924 41.6408 58.924 41.7266C58.924 41.7953 58.8896 41.841 58.8267 41.8582C58.758 41.8811 58.6321 41.8868 58.449 41.8868H57.0472C56.4979 41.8868 56.0688 41.8582 55.7655 41.8067C55.4623 41.7495 55.1876 41.6465 54.9358 41.4977C54.5124 41.2631 54.1062 40.8969 53.7114 40.3934C53.3166 39.8899 52.8359 39.249 52.2695 38.4651C52.0578 38.1733 51.846 37.8815 51.6401 37.5783C51.4284 37.275 51.2281 36.9889 51.0393 36.7143C50.8504 36.4396 50.6673 36.1878 50.5071 35.959C50.3412 35.7301 50.2153 35.547 50.1238 35.4097C50.0437 35.3296 49.9578 35.2838 49.8663 35.2838L47.4345 35.2437C47.343 35.2437 47.2972 35.301 47.2972 35.4097V35.9075C47.2972 36.8974 47.2972 37.7842 47.3086 38.5624C47.3143 39.3406 47.343 39.9471 47.3945 40.3877C47.4231 40.6909 47.4803 40.9427 47.5718 41.1487C47.6634 41.3547 47.8636 41.4806 48.1612 41.5206C48.3042 41.5492 48.4702 41.5664 48.6475 41.5835C48.8249 41.595 48.9622 41.6064 49.0538 41.6064C49.1625 41.6064 49.214 41.6465 49.214 41.7323C49.214 41.841 49.111 41.8982 48.8993 41.8982C48.6247 41.8982 48.35 41.8982 48.0696 41.8868C47.795 41.8811 47.5432 41.8754 47.3086 41.8639C47.0798 41.8582 46.8852 41.8525 46.7364 41.841C46.582 41.8353 46.4961 41.8296 46.4675 41.8296C46.1871 41.841 45.9526 41.8525 45.758 41.8582C45.5577 41.8639 45.3575 41.8696 45.1458 41.8811C44.9341 41.8868 44.7567 41.8925 44.6136 41.8925C44.4019 41.8925 44.2989 41.8353 44.2989 41.7266C44.2989 41.6465 44.3504 41.6007 44.4592 41.6007C44.5507 41.6007 44.648 41.595 44.7567 41.5778C44.8597 41.5664 44.9627 41.5435 45.0542 41.5149C45.2545 41.4748 45.3861 41.3489 45.4605 41.143C45.5349 40.937 45.5921 40.6795 45.6264 40.382C45.6779 39.9414 45.7122 39.3349 45.718 38.5567C45.718 37.7785 45.7294 36.8974 45.7294 35.9018L45.7065 35.9132ZM47.2857 27.3304V34.0822C47.2857 34.1909 47.3315 34.2768 47.4231 34.3282C47.5661 34.4255 47.8408 34.5056 48.2413 34.5628C48.6418 34.6258 49.0595 34.6544 49.4944 34.6544C49.729 34.6544 49.9807 34.6315 50.2439 34.58C50.5071 34.5342 50.7532 34.4255 50.9763 34.2596C51.3196 34.0135 51.6057 33.6187 51.8346 33.0752C52.0635 32.5316 52.1779 31.8679 52.1779 31.084C52.1779 29.7908 51.8747 28.7781 51.2681 28.0514C50.6616 27.3247 49.8262 26.9585 48.762 26.9585C48.4587 26.9585 48.1898 26.97 47.9495 26.9986C47.7149 27.0272 47.5432 27.0558 47.4402 27.0787C47.3315 27.1187 47.28 27.2046 47.28 27.3247L47.2857 27.3304Z"></path>
<path fill="white" d="M60.6031 35.9111V29.0907C60.6031 28.7817 60.6031 28.5357 60.5917 28.3468C60.586 28.1637 60.5745 27.9864 60.5631 27.8204C60.5345 27.4657 60.4715 27.1967 60.3628 27.0136C60.2598 26.8363 60.0424 26.7104 59.7105 26.6417C59.6304 26.6131 59.5217 26.5959 59.3844 26.5902C59.2471 26.5845 59.1326 26.5788 59.0411 26.5788C58.9324 26.5788 58.8809 26.5387 58.8809 26.4529C58.8809 26.3442 58.9839 26.287 59.1956 26.287C59.4187 26.287 59.6533 26.287 59.8936 26.2984C60.1397 26.3041 60.3628 26.3099 60.5631 26.3213C60.7691 26.327 60.9464 26.3327 61.0952 26.3442C61.2497 26.3499 61.3355 26.3556 61.3641 26.3556C61.4042 26.3556 61.4957 26.3556 61.6502 26.3442C61.799 26.3385 61.9764 26.3327 62.1652 26.3213C62.354 26.3156 62.5543 26.3099 62.7545 26.2984C62.9605 26.2927 63.1322 26.287 63.2752 26.287C63.4869 26.287 63.5899 26.3442 63.5899 26.4529C63.5899 26.533 63.5384 26.5788 63.4297 26.5788C63.3668 26.5788 63.2924 26.5788 63.2237 26.5902C63.1494 26.5959 63.0578 26.6131 62.9376 26.6417C62.6744 26.6989 62.4913 26.8191 62.3941 27.0022C62.2968 27.1853 62.2339 27.4599 62.2053 27.8147C62.1938 27.9806 62.1824 28.158 62.1766 28.3411C62.1766 28.5242 62.1652 28.776 62.1652 29.085V33.5137H62.2453C62.2968 33.445 62.4341 33.2962 62.6516 33.0616C62.869 32.827 63.1322 32.5467 63.4297 32.2262C63.733 31.9058 64.0591 31.5511 64.4196 31.1734C64.7744 30.7958 65.1119 30.4353 65.4381 30.092C65.7585 29.7487 66.0503 29.434 66.3078 29.1536C66.5653 28.8732 66.7541 28.6615 66.8685 28.5242C67.1489 28.221 67.3892 27.9406 67.6067 27.6888C67.8241 27.4371 67.9328 27.2196 67.9328 27.0365C67.9328 26.8191 67.847 26.6703 67.6753 26.6017C67.5552 26.5445 67.498 26.493 67.498 26.4357C67.498 26.3385 67.5781 26.2927 67.7383 26.2927C67.9385 26.2927 68.1731 26.3041 68.4478 26.3213C68.7282 26.3442 68.9799 26.3499 69.2202 26.3499C69.2488 26.3499 69.3347 26.3499 69.4892 26.3385C69.6436 26.3327 69.821 26.327 70.0213 26.3156C70.2273 26.3099 70.4275 26.3041 70.6335 26.2927C70.8395 26.287 70.9997 26.2812 71.1199 26.2812C71.3201 26.2812 71.4174 26.327 71.4174 26.4243C71.4174 26.5216 71.3545 26.5673 71.2171 26.5673C70.8853 26.5673 70.5191 26.6646 70.1128 26.8592C69.9126 26.9564 69.7352 27.0594 69.5693 27.1681C69.4033 27.2768 69.2374 27.4027 69.0772 27.5515C68.9112 27.6945 68.7453 27.8605 68.5737 28.0379C68.402 28.2152 68.2017 28.4155 67.9786 28.6386C67.8985 28.7188 67.744 28.879 67.5151 29.1136C67.2862 29.3482 67.023 29.6171 66.7255 29.9203C66.428 30.2236 66.1133 30.544 65.7757 30.8931C65.4381 31.2364 65.1234 31.5625 64.8259 31.8715C64.5283 32.1805 64.2708 32.4551 64.0534 32.684C63.836 32.9186 63.6929 33.0788 63.63 33.1589C63.7101 33.2562 63.8817 33.4507 64.1507 33.7368C64.4196 34.0229 64.7343 34.3662 65.0891 34.761C65.4438 35.1558 65.8272 35.5678 66.2334 36.0084C66.6397 36.449 67.0345 36.8667 67.4121 37.2557C67.7898 37.6505 68.1216 37.9996 68.4192 38.3086C68.7167 38.6175 68.9284 38.8407 69.06 38.978C69.472 39.3785 69.8096 39.7104 70.0785 39.9679C70.3474 40.2311 70.5877 40.4428 70.7994 40.6087C71.0112 40.7747 71.2057 40.912 71.3831 41.0207C71.5605 41.1294 71.7664 41.2324 72.0068 41.3297C72.27 41.4384 72.5217 41.5128 72.7678 41.5471C73.0138 41.5815 73.1683 41.5986 73.2312 41.5986C73.4029 41.5986 73.4887 41.6387 73.4887 41.7245C73.4887 41.7817 73.4601 41.8218 73.3972 41.8504C73.34 41.879 73.2198 41.8904 73.0539 41.8904H71.3259C71.1199 41.8904 70.9082 41.879 70.685 41.8504C70.4218 41.8218 70.1872 41.776 69.9869 41.7073C69.781 41.6387 69.5921 41.5528 69.4148 41.4498C69.2374 41.3469 69.06 41.221 68.8826 41.0779C68.7053 40.9349 68.5107 40.769 68.299 40.5916C68.156 40.4657 67.9214 40.2425 67.6067 39.9221C67.292 39.6017 66.9372 39.2183 66.5481 38.7892C66.159 38.3543 65.7471 37.8966 65.3122 37.4045C64.8773 36.9182 64.4597 36.4432 64.0591 35.9912C63.6586 35.5392 63.2981 35.1215 62.9834 34.7553C62.6687 34.3834 62.4284 34.0973 62.2739 33.8856H62.1766V35.9111C62.1766 36.901 62.1766 37.7879 62.1881 38.566C62.1938 39.3442 62.2224 39.9507 62.2796 40.3913C62.3082 40.6946 62.3655 40.9463 62.457 41.1523C62.5486 41.3583 62.7488 41.4842 63.0521 41.5242C63.1951 41.5528 63.3382 41.57 63.4755 41.5872C63.6128 41.5986 63.7273 41.6101 63.8188 41.6101C63.9275 41.6101 63.979 41.6501 63.979 41.7359C63.979 41.8447 63.876 41.9019 63.6643 41.9019C63.4297 41.9019 63.178 41.9019 62.9262 41.8904C62.6687 41.8847 62.4341 41.879 62.2281 41.8675C62.0164 41.8618 61.8333 41.8561 61.6846 41.8447C61.5358 41.8389 61.4385 41.8332 61.3985 41.8332C61.3584 41.8332 61.2669 41.8332 61.1238 41.8447C60.9751 41.8504 60.8091 41.8561 60.6203 41.8675C60.4315 41.8733 60.2312 41.879 60.031 41.8904C59.825 41.8962 59.6533 41.9019 59.5103 41.9019C59.2986 41.9019 59.1898 41.8447 59.1898 41.7359C59.1898 41.6558 59.2413 41.6101 59.3501 41.6101C59.4416 41.6101 59.5389 41.6043 59.6476 41.5872C59.7563 41.5757 59.8536 41.5528 59.9451 41.5242C60.1454 41.4842 60.277 41.3583 60.3514 41.1523C60.42 40.9463 60.4773 40.6888 60.5173 40.3913C60.5688 39.9507 60.5974 39.3442 60.6089 38.566C60.6089 37.7879 60.6203 36.9067 60.6203 35.9111H60.6031Z"></path>
<path fill="white" d="M76.937 42.1892C76.4735 42.1892 76.0215 42.1491 75.5752 42.069C75.1232 41.9889 74.6997 41.8459 74.2878 41.6456C74.1447 41.5769 74.0589 41.5026 74.0303 41.411C74.0017 41.3252 73.9902 41.1421 73.9902 40.8674C73.9902 40.3467 74.0017 39.889 74.0303 39.5056C74.0589 39.1223 74.0761 38.8476 74.0875 38.6817C74.0989 38.4643 74.1562 38.3498 74.2477 38.3498C74.3393 38.3498 74.385 38.4242 74.385 38.5787C74.385 38.676 74.385 38.7904 74.3965 38.922C74.4022 39.0536 74.4194 39.1909 74.448 39.3454C74.5281 39.7288 74.6597 40.0549 74.8428 40.3239C75.0259 40.5928 75.2548 40.8102 75.5237 40.9761C75.7926 41.1421 76.0844 41.2622 76.3991 41.3366C76.7138 41.411 77.04 41.4511 77.3661 41.4511C77.841 41.4511 78.253 41.371 78.6135 41.205C78.9682 41.0391 79.26 40.8274 79.4946 40.5756C79.7235 40.3181 79.9009 40.0263 80.0153 39.6945C80.1355 39.3626 80.1927 39.0307 80.1927 38.7046C80.1927 38.3441 80.1527 38.018 80.0725 37.7204C79.9924 37.4229 79.8666 37.1368 79.6835 36.8507C79.5061 36.5703 79.2715 36.2785 78.9854 35.981C78.6936 35.6834 78.3388 35.3516 77.9211 34.9797L77.0285 34.2129C76.5021 33.7609 76.073 33.3375 75.7468 32.9541C75.415 32.5708 75.1575 32.1931 74.9687 31.8269C74.7741 31.4607 74.6425 31.1117 74.5739 30.7741C74.4995 30.4365 74.4651 30.0875 74.4651 29.7327C74.4651 29.1834 74.5624 28.6799 74.7512 28.2222C74.9401 27.7701 75.2147 27.3753 75.5695 27.0435C75.9242 26.7116 76.3534 26.4598 76.8512 26.2767C77.3547 26.0994 77.9211 26.0078 78.5505 26.0078C78.9339 26.0078 79.2715 26.025 79.569 26.0593C79.8666 26.0936 80.1355 26.1451 80.3872 26.2138C80.5703 26.2538 80.7134 26.2825 80.8107 26.2939C80.9079 26.3053 80.9995 26.3168 81.0796 26.3168C81.2112 26.3168 81.2799 26.3626 81.2799 26.4598C81.2799 26.5171 81.2684 26.7173 81.2398 27.0664C81.2112 27.4154 81.1997 27.9418 81.1997 28.6456C81.1997 28.9603 81.154 29.1205 81.0624 29.1205C80.9938 29.1205 80.9537 29.0976 80.9423 29.0461C80.9308 29.0003 80.9137 28.9317 80.9022 28.8516C80.8908 28.7257 80.8564 28.554 80.8107 28.3252C80.7649 28.0963 80.7077 27.9303 80.6447 27.8216C80.6161 27.7644 80.5589 27.6786 80.4674 27.5527C80.3758 27.4268 80.2328 27.3067 80.0439 27.1808C79.8551 27.0549 79.6034 26.9519 79.3058 26.8604C79.0026 26.7688 78.6306 26.7288 78.1786 26.7288C77.4977 26.7288 76.9198 26.9405 76.4506 27.3582C75.9814 27.7759 75.7526 28.3652 75.7526 29.1205C75.7526 29.4066 75.7869 29.6812 75.8613 29.933C75.9357 30.1905 76.0615 30.448 76.2446 30.7054C76.4277 30.9686 76.6795 31.249 76.9885 31.5523C77.2975 31.8555 77.6865 32.1988 78.1615 32.5822L78.7165 33.0342C79.2944 33.5149 79.775 33.9612 80.1469 34.3731C80.5246 34.7851 80.8164 35.1799 81.0338 35.5576C81.2512 35.9352 81.4 36.3128 81.4801 36.6905C81.5602 37.0681 81.6003 37.4629 81.6003 37.8749C81.6003 38.0809 81.5774 38.3269 81.5316 38.6187C81.4858 38.9106 81.4 39.2081 81.2741 39.5285C81.1483 39.8432 80.9766 40.1579 80.7592 40.4669C80.5417 40.7759 80.2614 41.0562 79.9181 41.3023C79.4946 41.617 79.0312 41.8401 78.5162 41.9717C78.0012 42.1033 77.4748 42.1663 76.937 42.1663V42.1892Z"></path>
</svg>
