<svg xmlns="http://www.w3.org/2000/svg" fill="none" viewBox="0 0 139 65" height="65" width="139">
<path fill="white" d="M137.882 29.0201V22.3347H135.003V28.7045C135.003 31.2677 133.617 33.3335 130.881 33.3335C128.146 33.3335 126.845 31.2772 126.845 28.7045V22.3347H123.966V29.0201C123.966 32.578 125.851 35.3133 129.437 35.8776V41.2335H132.316V35.8776C135.95 35.3133 137.873 32.6067 137.873 29.0201H137.882ZM117.472 41.2335H120.351V30.5217C120.351 25.2805 117.845 22 112.709 22C107.573 22 105.068 25.2709 105.068 30.5217V41.2335H107.946V35.3133H117.482V41.2335H117.472ZM117.472 32.6353H107.937V30.6843C107.937 26.9351 109.515 24.7354 112.7 24.7354C115.885 24.7354 117.463 26.9351 117.463 30.6843V32.6353H117.472ZM98.0953 38.8712L101.452 22.3443H98.5736L95.5321 38.1634C95.4748 38.5556 95.36 38.7564 95.1113 38.7564C94.8627 38.7564 94.7479 38.5556 94.6331 38.1634L91.3909 24.678C90.9987 22.9277 90.0615 22.1722 88.7416 22.1722C87.4217 22.1722 86.4845 22.966 86.121 24.7067L82.9935 38.1634C82.9075 38.6129 82.7353 38.7851 82.5153 38.7851C82.2954 38.7851 82.1519 38.5843 82.0658 38.1634L78.7662 22.3443H75.8874L79.5217 39.0433C79.8852 40.7075 80.9851 41.6065 82.4579 41.6065C83.8065 41.6065 84.9064 40.7075 85.2794 39.1198L88.4642 25.2996C88.5216 25.0414 88.6364 24.9362 88.7512 24.9362C88.8946 24.9362 88.9807 25.051 89.0381 25.2996L92.309 38.9477C92.7299 40.6692 93.7723 41.5683 95.2739 41.5683C96.7755 41.5683 97.7797 40.5258 98.124 38.8616L98.0953 38.8712ZM61.675 41.2335H72.253V38.6129H61.9046V33.0849H71.4974V30.4643H61.9046V24.9649H72.0521V22.3443H61.675C59.7239 22.3443 59.0258 23.3294 59.0258 24.9362V38.6416C59.0258 40.2484 59.7335 41.2335 61.675 41.2335ZM49.5859 25.0318H55.3914V22.3826H40.9208V25.0318H46.7071V41.2718H49.5859V25.0318ZM35.1632 41.2622H38.042V30.5408C38.042 25.2996 35.5362 22.0191 30.4002 22.0191C25.2643 22.0191 22.7585 25.2901 22.7585 30.5408V41.2622H25.6373V35.342H35.1727V41.2622H35.1632ZM35.1632 32.664H25.6277V30.7225C25.6277 26.9734 27.2058 24.7736 30.3907 24.7736C33.5755 24.7736 35.1536 26.9734 35.1536 30.7225V32.664H35.1632ZM18.4068 37.9626V31.7076H11.8458V34.3569H15.614V36.9679C14.715 38.0391 12.8787 38.9094 10.6215 38.9094C6.78632 38.9094 3.96489 35.8393 3.96489 31.8033C3.96489 27.7672 6.78632 24.7258 10.5068 24.7258C12.8213 24.7258 14.7915 25.8257 15.9201 27.7672L18.2633 26.4091C16.8 23.5303 13.749 22.0096 10.6215 22.0096C5.17954 22.0096 1 26.4091 1 31.7363C1 37.0636 5.20823 41.5491 10.6215 41.5491C14.3133 41.5491 17.106 39.8276 18.4068 37.9435V37.9626Z"></path>
</svg>
