<svg xmlns="http://www.w3.org/2000/svg" fill="none" viewBox="0 0 134 65" height="65" width="134">
<path fill="white" d="M12.2976 40.5967L21.8155 22.6918H20.4161L11.9909 38.1621C11.6362 38.6797 11.1761 38.6893 10.8215 38.5071C10.6298 38.4113 10.4764 38.2388 10.371 38.0471L2.37709 22.6823H0C0.335476 23.3053 9.14412 39.8203 9.34541 40.1941C9.61379 40.7021 10.0355 41.5456 11.1186 41.5456C11.8471 41.5456 12.2976 40.5871 12.2976 40.5871M26.0617 41.5744H28.41V22.6823H26.0617V41.5744ZM45.0017 40.5967L54.5292 22.6727H53.1298L44.695 38.1621C44.3404 38.6797 43.8803 38.6893 43.5256 38.5071C43.3339 38.4113 43.1806 38.2388 43.0847 38.0471L35.0908 22.6727H32.7137C33.0492 23.2957 41.8578 39.8203 42.0591 40.2037C42.3275 40.7117 42.7492 41.5552 43.8324 41.5552C44.5608 41.5552 45.0113 40.5967 45.0113 40.5967M67.7662 35.0565L56.638 35.0757L61.2675 26.1808C61.373 25.9891 61.5167 25.8166 61.718 25.7207C62.0631 25.5386 62.5327 25.5578 62.8874 26.0754L67.7758 35.0565H67.7662ZM71.3031 41.5648H72.7025L63.1845 23.6408C63.1845 23.6408 62.734 22.6823 62.0056 22.6823C60.9225 22.6823 60.5007 23.5257 60.2323 24.0337C60.0311 24.4076 51.2128 40.9417 50.8869 41.5648H53.264L56.1875 35.9479H68.255L71.3126 41.5648H71.3031ZM92.7735 40.2037V22.6631H91.5466V39.2739C91.5466 39.4656 91.307 39.5519 91.192 39.4081C89.112 36.8202 80.2075 25.8357 78.0893 23.2286C77.8017 22.874 77.3704 22.6727 76.9199 22.6727C76.1435 22.6727 75.5109 23.2957 75.5109 24.0817V41.5744H76.7569V25.644C76.7569 25.3565 77.1116 25.2319 77.2841 25.4523C79.4599 28.1553 87.3101 37.8745 89.7255 40.8555C90.0514 41.258 90.7415 41.5935 91.2591 41.5935H91.3933C92.1601 41.5935 92.7831 40.9705 92.7831 40.2037M106.959 23.8229H113.525V22.6631H96.5596V23.8325H103.068C103.432 23.8325 103.729 24.12 103.729 24.4938V41.5552H106.298V24.4938C106.298 24.1296 106.595 23.8229 106.969 23.8229M127.356 35.0565L116.228 35.0757L120.858 26.1808C120.954 25.9891 121.107 25.8166 121.308 25.7207C121.653 25.5482 122.123 25.5578 122.478 26.0754L127.366 35.0565H127.356ZM132.293 41.5552L122.775 23.6312C122.775 23.6312 122.315 22.6727 121.596 22.6727C120.513 22.6727 120.091 23.5162 119.822 24.0242C119.621 24.398 110.803 40.9322 110.477 41.5552H112.854L115.778 35.9384H127.836L130.893 41.5552H132.293Z"></path>
</svg>
