<svg xmlns="http://www.w3.org/2000/svg" fill="none" viewBox="0 0 115 65" height="65" width="115">
<path fill="white" d="M112.474 32.7429C113.607 31.6732 114.233 30.1757 114.233 28.5356C114.233 26.9826 113.639 25.5643 112.458 24.3203C111.372 23.2031 109.875 22.5851 108.251 22.5851H106.626L106.309 22.5534H103.489V40.9912H106.309V25.4058H108.251C109.122 25.4058 109.875 25.7148 110.485 26.317C111.079 26.9509 111.38 27.6957 111.38 28.5356C111.38 29.3754 111.071 30.1599 110.477 30.762C109.875 31.3642 109.463 31.6098 108.892 31.6098L106.436 31.6653L110.881 39.5333C111.404 40.4365 112.371 40.9912 113.417 40.9912H114.447L110.374 34.1136L110.691 33.971C111.357 33.6699 111.943 33.2658 112.466 32.7429H112.474ZM85.0984 40.9912H94.8283V38.1387H87.9191V33.2658H93.0693V30.4451H87.9191V25.3345H94.8125C94.654 23.7577 93.3149 22.5138 91.6907 22.5138H85.0984V40.9832V40.9912ZM71.3275 33.2262H78.0782C78.0782 31.6336 76.7867 30.35 75.202 30.35H71.3354C70.5431 30.35 69.8933 30.9918 69.8933 31.7921C69.8933 32.5923 70.5351 33.2341 71.3354 33.2341L71.3275 33.2262ZM76.6045 26.0951C74.0056 22.4662 68.9901 20.6755 63.927 23.0922C62.1918 23.9241 60.7893 25.3187 59.9495 27.046C56.4156 34.3593 61.6926 41.5933 68.6256 41.5933C72.7775 41.5933 76.3351 38.9945 77.7613 35.3418H74.7504C73.5223 37.4494 71.2403 38.8677 68.6177 38.8677C63.5071 38.8677 59.6563 33.4481 62.5008 28.0364C62.9603 27.1727 64.0459 26.0951 64.9095 25.6435C68.681 23.6864 72.4447 24.9621 74.378 27.6561C74.6395 28.0126 75.0436 28.2265 75.4873 28.2265C76.5886 28.2265 77.2383 26.9826 76.5965 26.0872L76.6045 26.0951ZM41.4562 30.0885L51.8042 41.2209V25.7861C51.8042 24.1381 50.5444 22.7752 48.9359 22.6088V33.7571L41.0997 25.699L38.5879 23.0763V41.2209H41.4562V30.0885ZM27.0911 41.11H29.9435V25.6356C29.9435 23.9954 28.6916 22.6405 27.0911 22.4821V41.11ZM12.7814 33.2262H19.5242C19.5242 31.6336 18.2327 30.35 16.648 30.35H12.7814C11.989 30.35 11.3393 30.9918 11.3393 31.7921C11.3393 32.5923 11.989 33.2341 12.7814 33.2341V33.2262ZM18.0584 26.0951C15.4595 22.4662 10.444 20.6755 5.3809 23.0922C3.64567 23.9241 2.24323 25.3187 1.40335 27.046C-2.12257 34.3593 3.1465 41.5933 10.0795 41.5933C14.2314 41.5933 17.789 38.9945 19.2152 35.3418H16.2043C14.9762 37.4494 12.6942 38.8677 10.0795 38.8677C4.96888 38.8677 1.11811 33.4481 3.96261 28.0364C4.41425 27.1727 5.50768 26.0951 6.37133 25.6435C10.1429 23.6864 13.9065 24.9621 15.8398 27.6561C16.0934 28.0126 16.5054 28.2265 16.9412 28.2265C18.0425 28.2265 18.6922 26.9826 18.0504 26.0872L18.0584 26.0951Z"></path>
</svg>
